<?xml version="1.0" encoding="utf-8"?>
<!-- Generator: Adobe Illustrator 19.0.0, SVG Export Plug-In . SVG Version: 6.00 Build 0)  -->
<svg version="1.1" id="Layer_1" xmlns="http://www.w3.org/2000/svg" xmlns:xlink="http://www.w3.org/1999/xlink" x="0px" y="0px"
	 viewBox="0 0 368.1 151.7" style="enable-background:new 0 0 368.1 151.7;" xml:space="preserve">
<style type="text/css">
	.st0{fill:#FFFFFF;}
</style>
<rect x="69.5" y="124.5" width="229.2" height="27.2"/>
<g>
	<path d="M112.6,104.6H78.6c-4.9,0-9.2-0.4-12.9-1.3c-3.7-0.9-6.7-2.5-9.2-4.9c-2.4-2.4-4.3-5.8-5.5-10c-1.2-4.3-1.8-9.9-1.8-16.7
		c0-6.9,0.6-12.5,1.8-16.7c1.2-4.3,3-7.7,5.5-10.1c2.4-2.4,5.5-4.1,9.2-5c3.7-0.9,8-1.3,12.9-1.3h33.8V53H78.7
		c-2.2,0-4.1,0.3-5.6,0.8c-1.5,0.5-2.7,1.5-3.7,2.9c-0.9,1.4-1.6,3.3-2,5.7c-0.4,2.4-0.6,5.4-0.6,9.2c0,3.7,0.2,6.8,0.6,9.2
		c0.4,2.4,1.1,4.3,2,5.7c0.9,1.4,2.2,2.3,3.7,2.8c1.5,0.5,3.4,0.8,5.6,0.8H97V70.2h15.6V104.6z"/>
	<path d="M177.3,104.6h-30.9c-4.9,0-9.2-0.4-12.9-1.3c-3.7-0.9-6.7-2.5-9.2-4.9c-2.4-2.4-4.3-5.8-5.5-10c-1.2-4.3-1.8-9.9-1.8-16.7
		c0-6.9,0.6-12.5,1.8-16.7c1.2-4.3,3-7.7,5.5-10.1c2.4-2.4,5.5-4.1,9.2-5c3.7-0.9,8-1.3,12.9-1.3h30.9V53h-30.8
		c-2.2,0-4.1,0.3-5.6,0.8c-1.5,0.5-2.7,1.5-3.7,2.9c-0.9,1.4-1.6,3.3-2,5.7c-0.4,2.4-0.6,5.5-0.6,9.2c0,3.7,0.2,6.8,0.6,9.2
		c0.4,2.4,1.1,4.3,2,5.7c0.9,1.4,2.2,2.3,3.7,2.8c1.5,0.5,3.4,0.8,5.6,0.8h30.8V104.6z"/>
	<path d="M206.3,52.7h-23.4V38.4h64.6v14.3h-23.4v51.9h-17.7V52.7z"/>
	<path d="M269.3,82.7v21.9h-17.7V38.4H293c3.3,0,6.5,0.3,9.6,0.8c3,0.5,5.7,1.5,8.1,3c2.4,1.5,4.2,3.6,5.6,6.3
		c1.4,2.7,2.1,6.2,2.1,10.6c0,3.8-0.5,7-1.6,9.5c-1.1,2.5-2.6,4.6-4.5,6.2c2.1,1,3.7,2.5,4.8,4.3c1.2,1.8,1.8,4.3,1.8,7.3v18.3
		h-17.7V88.3c0-2.1-0.4-3.6-1.3-4.4c-0.9-0.8-2.7-1.2-5.6-1.2H269.3z M301.4,61.2c0-1.7-0.2-3.1-0.6-4.1c-0.4-1.1-0.9-1.9-1.6-2.5
		c-0.7-0.6-1.5-1-2.4-1.2c-0.9-0.2-1.9-0.3-3-0.3h-24.4v16.4h24.4c1.1,0,2.1-0.1,3-0.4c0.9-0.2,1.8-0.7,2.4-1.3
		c0.7-0.6,1.2-1.4,1.6-2.5C301.2,64.2,301.4,62.8,301.4,61.2z"/>
	<rect x="164.1" y="90" width="37.7" height="14.6"/>
	<rect x="228.5" y="90" width="18.8" height="14.6"/>
</g>
<rect x="171" y="38.4" width="4.5" height="14.6"/>
<g>
	<polygon points="11.8,104.6 0,104.6 0,143 83.6,143 83.6,131.2 11.8,131.2 	"/>
	<polygon points="11.8,38.4 11.8,11.8 356.3,11.8 356.3,38.4 368.1,38.4 368.1,0 0,0 0,38.4 	"/>
	<polygon points="356.3,104.6 356.3,131.2 284.5,131.2 284.5,143.1 336.2,143.1 336.2,143 368.1,143 368.1,104.6 	"/>
</g>
<g>
	<path class="st0" d="M87.6,143h-5.9c-0.8,0-1.6-0.1-2.2-0.2c-0.6-0.2-1.2-0.4-1.6-0.9c-0.4-0.4-0.7-1-0.9-1.7
		c-0.2-0.7-0.3-1.7-0.3-2.9c0-1.2,0.1-2.2,0.3-2.9c0.2-0.7,0.5-1.3,0.9-1.7c0.4-0.4,1-0.7,1.6-0.9c0.6-0.2,1.4-0.2,2.2-0.2h5.8v2.5
		h-5.8c-0.4,0-0.7,0-1,0.1c-0.3,0.1-0.5,0.3-0.6,0.5c-0.2,0.2-0.3,0.6-0.4,1c-0.1,0.4-0.1,0.9-0.1,1.6c0,0.6,0,1.2,0.1,1.6
		c0.1,0.4,0.2,0.7,0.4,1c0.2,0.2,0.4,0.4,0.6,0.5c0.3,0.1,0.6,0.1,1,0.1h3.2V137h2.7V143z"/>
	<path class="st0" d="M95.7,143.2c-1.3,0-2.3-0.1-3.1-0.3c-0.8-0.2-1.4-0.6-1.9-1c-0.4-0.5-0.7-1.1-0.9-1.8
		c-0.2-0.8-0.2-1.7-0.2-2.8c0-1.1,0.1-2,0.2-2.7c0.2-0.8,0.5-1.4,0.9-1.8c0.4-0.5,1.1-0.8,1.9-1c0.8-0.2,1.8-0.3,3.1-0.3
		c1.3,0,2.3,0.1,3.1,0.3c0.8,0.2,1.4,0.6,1.9,1c0.4,0.5,0.7,1.1,0.9,1.8c0.2,0.8,0.2,1.7,0.2,2.7c0,1.1-0.1,2-0.2,2.8
		c-0.2,0.8-0.5,1.4-0.9,1.8c-0.4,0.5-1.1,0.8-1.9,1C98,143.1,96.9,143.2,95.7,143.2z M95.7,133.8c-0.7,0-1.2,0.1-1.6,0.2
		c-0.4,0.1-0.7,0.3-0.9,0.6c-0.2,0.3-0.4,0.6-0.4,1.1c-0.1,0.4-0.1,1-0.1,1.6c0,0.6,0,1.2,0.1,1.6c0.1,0.4,0.2,0.8,0.4,1.1
		c0.2,0.3,0.5,0.5,0.9,0.6c0.4,0.1,0.9,0.2,1.6,0.2c0.7,0,1.2-0.1,1.6-0.2c0.4-0.1,0.7-0.3,0.9-0.6c0.2-0.3,0.4-0.6,0.4-1.1
		c0.1-0.4,0.1-1,0.1-1.6c0-0.6,0-1.2-0.1-1.6c-0.1-0.4-0.2-0.8-0.4-1.1c-0.2-0.3-0.5-0.5-0.9-0.6C96.9,133.9,96.3,133.8,95.7,133.8z
		"/>
	<path class="st0" d="M106.9,131.5V143h-3.1v-11.4H106.9z"/>
	<path class="st0" d="M114.1,131.5h3.3L123,143h-3.1l-1-2.2h-6.1l-1,2.2h-3.2L114.1,131.5z M114.7,127.9h2.1l2.6,3h-2.1l-1.6-1.5
		l-1.6,1.5h-2.1L114.7,127.9z M113.8,138.4h3.9l-2-4.2L113.8,138.4z"/>
	<path class="st0" d="M133.9,139.6v-8.1h2.8V143H133l-5.6-7.8v7.8h-2.8v-11.4h3.6L133.9,139.6z"/>
	<path class="st0" d="M142.3,131.5V143h-3.1v-11.4H142.3z"/>
	<path class="st0" d="M149.5,131.5h3.3l5.6,11.4h-3.1l-1-2.2h-6.1l-1,2.2h-3.2L149.5,131.5z M149.3,138.4h3.9l-2-4.2L149.3,138.4z"
		/>
	<path class="st0" d="M175.5,143h-5.3c-0.8,0-1.6-0.1-2.2-0.2c-0.6-0.2-1.2-0.4-1.6-0.9c-0.4-0.4-0.7-1-0.9-1.7
		c-0.2-0.7-0.3-1.7-0.3-2.9c0-1.2,0.1-2.2,0.3-2.9c0.2-0.7,0.5-1.3,0.9-1.7c0.4-0.4,1-0.7,1.6-0.9c0.6-0.2,1.4-0.2,2.2-0.2h5.3v2.5
		h-5.3c-0.4,0-0.7,0-1,0.1c-0.3,0.1-0.5,0.3-0.6,0.5c-0.2,0.2-0.3,0.6-0.4,1c-0.1,0.4-0.1,1-0.1,1.6c0,0.6,0,1.2,0.1,1.6
		c0.1,0.4,0.2,0.7,0.4,1c0.2,0.2,0.4,0.4,0.6,0.5c0.3,0.1,0.6,0.1,1,0.1h5.3V143z"/>
	<path class="st0" d="M183.2,143.2c-1.3,0-2.3-0.1-3.1-0.3c-0.8-0.2-1.4-0.6-1.9-1c-0.4-0.5-0.7-1.1-0.9-1.8
		c-0.2-0.8-0.2-1.7-0.2-2.8c0-1.1,0.1-2,0.2-2.7c0.2-0.8,0.5-1.4,0.9-1.8c0.4-0.5,1.1-0.8,1.9-1c0.8-0.2,1.8-0.3,3.1-0.3
		c1.3,0,2.3,0.1,3.1,0.3c0.8,0.2,1.4,0.6,1.9,1c0.4,0.5,0.7,1.1,0.9,1.8c0.2,0.8,0.2,1.7,0.2,2.7c0,1.1-0.1,2-0.2,2.8
		c-0.2,0.8-0.5,1.4-0.9,1.8c-0.4,0.5-1.1,0.8-1.9,1C185.5,143.1,184.5,143.2,183.2,143.2z M183.2,133.8c-0.7,0-1.2,0.1-1.6,0.2
		c-0.4,0.1-0.7,0.3-0.9,0.6c-0.2,0.3-0.4,0.6-0.4,1.1c-0.1,0.4-0.1,1-0.1,1.6c0,0.6,0,1.2,0.1,1.6c0.1,0.4,0.2,0.8,0.4,1.1
		c0.2,0.3,0.5,0.5,0.9,0.6c0.4,0.1,0.9,0.2,1.6,0.2c0.7,0,1.2-0.1,1.6-0.2c0.4-0.1,0.7-0.3,0.9-0.6c0.2-0.3,0.4-0.6,0.4-1.1
		c0.1-0.4,0.1-1,0.1-1.6c0-0.6,0-1.2-0.1-1.6c-0.1-0.4-0.2-0.8-0.4-1.1c-0.2-0.3-0.5-0.5-0.9-0.6
		C184.4,133.9,183.9,133.8,183.2,133.8z"/>
	<path class="st0" d="M200.7,139.6v-8.1h2.8V143h-3.7l-5.6-7.8v7.8h-2.9v-11.4h3.6L200.7,139.6z"/>
	<path class="st0" d="M209.3,134h-4.1v-2.5h11.2v2.5h-4.1v9h-3.1V134z"/>
	<path class="st0" d="M222.8,131.5h3.3l5.6,11.4h-3.1l-1-2.2h-6.1l-1,2.2h-3.2L222.8,131.5z M222.6,138.4h3.9l-2-4.2L222.6,138.4z"
		/>
	<path class="st0" d="M236.4,131.5V143h-3.1v-11.4H236.4z"/>
	<path class="st0" d="M248.3,139.6v-8.1h2.8V143h-3.7l-5.6-7.8v7.8h-2.9v-11.4h3.6L248.3,139.6z"/>
	<path class="st0" d="M264.1,138.4h-7.5v2.1h7.5v2.5h-10.6v-11.4h10.6v2.5h-7.5v2.1h7.5V138.4z"/>
	<path class="st0" d="M269.6,139.2v3.8h-3.1v-11.4h7.2c0.6,0,1.1,0,1.7,0.1c0.5,0.1,1,0.3,1.4,0.5c0.4,0.3,0.7,0.6,1,1.1
		c0.2,0.5,0.4,1.1,0.4,1.8c0,0.7-0.1,1.2-0.3,1.6c-0.2,0.4-0.4,0.8-0.8,1.1c0.4,0.2,0.6,0.4,0.8,0.7c0.2,0.3,0.3,0.7,0.3,1.3v3.2
		h-3.1v-2.8c0-0.4-0.1-0.6-0.2-0.8c-0.2-0.1-0.5-0.2-1-0.2H269.6z M275.1,135.5c0-0.3,0-0.5-0.1-0.7c-0.1-0.2-0.2-0.3-0.3-0.4
		c-0.1-0.1-0.3-0.2-0.4-0.2c-0.2,0-0.3-0.1-0.5-0.1h-4.2v2.8h4.2c0.2,0,0.4,0,0.5-0.1c0.2,0,0.3-0.1,0.4-0.2
		c0.1-0.1,0.2-0.2,0.3-0.4C275.1,136,275.1,135.7,275.1,135.5z"/>
	<path class="st0" d="M283.4,138.4c-0.6,0-1.2-0.1-1.6-0.2c-0.4-0.1-0.8-0.4-1-0.6c-0.3-0.3-0.4-0.6-0.6-1.1
		c-0.1-0.4-0.2-0.9-0.2-1.5c0-0.6,0.1-1.1,0.2-1.5c0.1-0.4,0.3-0.8,0.5-1.1c0.3-0.3,0.6-0.5,1-0.6c0.4-0.1,1-0.2,1.7-0.2h7.3v2.6
		H284c-0.4,0-0.6,0.1-0.7,0.2c-0.1,0.2-0.2,0.4-0.2,0.8s0.1,0.6,0.2,0.8c0.1,0.2,0.4,0.2,0.7,0.2h3.7c0.6,0,1.2,0.1,1.6,0.2
		c0.4,0.1,0.8,0.3,1,0.6c0.3,0.3,0.4,0.6,0.5,1.1c0.1,0.4,0.2,0.9,0.2,1.5c0,0.6-0.1,1.1-0.2,1.5c-0.1,0.4-0.3,0.8-0.5,1.1
		c-0.3,0.3-0.6,0.5-1,0.7c-0.4,0.1-1,0.2-1.6,0.2h-7.6v-2.6h7c0.3,0,0.6-0.1,0.7-0.2c0.1-0.2,0.2-0.4,0.2-0.8c0-0.4-0.1-0.7-0.2-0.8
		c-0.2-0.1-0.4-0.2-0.7-0.2H283.4z"/>
</g>
</svg>
