<?xml version="1.0" encoding="utf-8"?>
<!-- Generator: Adobe Illustrator 19.0.0, SVG Export Plug-In . SVG Version: 6.00 Build 0)  -->
<svg version="1.1" id="Layer_1" xmlns="http://www.w3.org/2000/svg" xmlns:xlink="http://www.w3.org/1999/xlink" x="0px" y="0px"
	 viewBox="0 0 400.8 361.7" style="enable-background:new 0 0 400.8 361.7;" xml:space="preserve">
<style type="text/css">
	.st0{fill:#221D1F;}
</style>
<path class="st0" d="M178.2,182.4c4.5-7.7,8.5-14.6,12.3-21.6c0.5-1,0.2-2.8-0.3-4c-1.5-3.1-3.5-6-5.1-9.1c-1.7-3.4-0.5-5.6,3.3-5.7
	c8-0.2,16-0.2,24,0c3.8,0.1,4.8,2.3,3.3,5.8c-0.2,0.5-0.4,0.9-0.7,1.3c-6.6,7.1-5.2,13.9,0.4,21c2.7,3.5,4.6,7.6,7.1,12.1
	c1.2-1.8,2.1-3.1,2.9-4.5c7.2-12.4,14.3-24.8,21.4-37.2c2.4-4.2,5.6-5.8,10.4-3.8c40.5,16.5,67.9,44.7,78.6,87.8
	c1.9,7.6-0.8,11.1-8.7,11.1c-84.5,0-168.9,0-253.4,0c-7.6,0-10.6-3.5-8.8-10.7c10.8-43.4,38.2-72,79.3-88.4c4.7-1.9,7.6,0.2,9.9,4.1
	c6.7,11.7,13.5,23.3,20.2,35C175.4,177.6,176.6,179.6,178.2,182.4z M76.2,224.7c82.9,0,165.5,0,248.1,0
	c-0.4-26.3-40.8-71.2-69.5-77.1c-7.4,12.7-14.8,25.5-22.2,38.3c-5.6,9.6-14.4,9.6-20.1-0.1c-3.9-6.7-7.8-13.4-11.7-20.1
	c-0.7,0.5-1.1,0.6-1.2,0.8c-3.6,6.2-7.2,12.3-10.8,18.5c-6.3,10.9-14.7,10.9-21.1-0.1c-7.3-12.5-14.4-25-21.6-37.4
	C116.7,154.3,79.9,194.8,76.2,224.7z"/>
<path class="st0" d="M200.2,125c-20.3-0.6-35.4-10.5-45.7-27.9c-13.8-23.2-16.2-56.7,4.1-78.7C174.8,0.8,201.1-5,223.1,4.7
	c22.5,9.9,36.1,33.5,33.8,57.6c-1.5,16.3-6.3,31.3-17.1,43.8C229.5,118.1,216.5,124.7,200.2,125z M246.4,63
	c0.4-29.1-16.4-49-39.7-52.3c-22.7-3.2-45.1,11-50.6,33.5c-5.4,22.4,0.1,42.8,16.8,59c17.4,16.9,43.4,14.7,59.1-4.1
	C241.9,87.3,246.2,73.4,246.4,63z"/>
<path class="st0" d="M170.8,293.8c12.4-0.1,12.4-0.1,16.2-11.8c1-3,2-6,3-9c1.6-5.1,5.1-7.9,10.3-7.9c5.2,0,8.5,3.1,10.1,8.1
	c1.8,5.7,3.9,11.3,5.5,17.1c0.8,2.8,2.2,3.6,4.9,3.5c6-0.2,12-0.1,18,0c5.9,0.1,9.5,2.7,11,7.6c1.6,5.2-0.6,9-4.8,12
	c-4.7,3.4-9.4,7-14.2,10.2c-2.4,1.6-3.1,3.3-2.1,6.2c2.1,5.9,3.8,12,5.8,18c1.6,4.8,0,8.6-3.7,11.5c-3.8,3-8,3.1-12,0.3
	c-5.3-3.7-10.6-7.5-15.8-11.4c-2.1-1.6-3.6-1.6-5.6,0c-4.9,3.7-10,7.2-15,10.8c-4.2,3.1-8.5,3.5-12.9,0.5c-3.9-2.7-5.2-7.1-3.6-12.5
	c1.8-5.9,3.6-11.8,5.7-17.5c0.9-2.6,0.4-3.8-1.8-5.3c-4.9-3.4-9.7-7-14.5-10.6c-4.7-3.5-6.3-7.7-4.8-12.5c1.4-4.6,5.4-7.2,11.3-7.3
	C164.8,293.8,167.8,293.8,170.8,293.8z M238.2,305.6c-0.1-0.4-0.3-0.7-0.4-1.1c-5.8,0-11.6,0-17.4,0c-8.8-0.1-11.3-2-14.1-10.3
	c-1.9-5.7-3.9-11.4-6.2-18.1c-2.4,7.3-4.4,13.3-6.5,19.2c-2.4,7.1-5.5,9.2-12.9,9.2c-6.1,0-12.1,0-18.5,0c0.5,0.9,0.5,1.3,0.8,1.4
	c4.6,3.5,9.3,7,13.9,10.5c6.4,4.8,7.3,7.7,4.8,15.4c-1.8,5.8-3.7,11.5-5.6,17.7c1-0.2,1.4-0.2,1.6-0.4c4.4-3,8.7-6.1,13.1-9.2
	c8.2-5.8,10.6-5.8,18.6,0.1c4.4,3.2,8.9,6.4,13.4,9.6c-0.8-6-2.3-11.2-4-16.3c-3-9.5-2.2-12.1,6.1-18.1
	C229.4,312.1,233.8,308.8,238.2,305.6z"/>
<path class="st0" d="M320.9,293.8c12.7,0,12.7,0,16.7-12.2c1-3.2,2-6.3,3.1-9.5c1.7-4.5,5.1-7.1,9.9-7.1c4.7,0,8.3,2.4,9.8,7.1
	c2,6,4.1,12,5.9,18c0.8,2.7,2,3.7,4.9,3.6c6-0.2,12,0,18,0c5.2,0,9.1,2.2,10.9,7.1c1.8,4.7,0.2,9.1-4.6,12.6
	c-4.5,3.4-9,6.9-13.8,9.9c-3.2,2-3.5,4.1-2.3,7.4c2,5.3,3.5,10.7,5.2,16.1c1.6,4.9,0.8,9.2-3.4,12.5c-4,3.1-8.3,2.9-13.3-0.6
	c-4.9-3.5-9.8-6.9-14.5-10.6c-2.1-1.6-3.5-1.6-5.6,0c-4.9,3.8-10,7.2-15,10.8c-4.2,3.1-8.5,3.6-12.9,0.5c-4-2.8-5.2-7.1-3.5-12.4
	c1.7-5.6,3.3-11.2,5.4-16.6c1.3-3.3,0.4-5.1-2.4-7c-4.8-3.3-9.4-6.9-14.1-10.3c-4.1-3-5.8-6.8-4.4-11.8c1.3-4.6,5.2-7.4,10.5-7.6
	C314.5,293.7,317.7,293.8,320.9,293.8z M313.2,304.5c-0.1,0.3-0.3,0.7-0.4,1c4.3,3.2,8.7,6.5,13,9.7c8.4,6.2,9.1,8.4,5.8,18.6
	c-1.7,5.2-3.3,10.5-5.4,16.9c6.4-4.6,11.7-8.3,17-12c5.8-4.1,9.1-4,15,0.2c5.2,3.7,10.4,7.5,16.6,12c-2.2-7-4-12.8-5.8-18.6
	c-2.6-8.3-1.7-11.1,5.3-16.1c4.8-3.5,9.7-7.1,14.5-10.6c-7-1-13.5-0.9-20-1c-6.3-0.1-9.4-2.4-11.5-8.4c-2.1-6.2-4.2-12.5-6.7-20.2
	c-2.4,7.3-4.4,13.4-6.5,19.5c-2.3,6.7-5.5,9-12.6,9.1C325.4,304.5,319.3,304.5,313.2,304.5z"/>
<path class="st0" d="M20.5,293.8c12.7,0,12.7,0,16.7-12c1.1-3.3,2.1-6.7,3.3-9.9c1.6-4.4,5-6.7,9.6-6.7c4.7-0.1,8.3,2.3,10,6.9
	c2.2,6.1,4.2,12.2,6,18.5c0.7,2.6,2,3.4,4.6,3.3c6-0.1,12-0.1,18,0c5.9,0.1,9.6,2.5,11.2,7.3c1.6,4.7,0.1,8.7-4.8,12.4
	c-4.5,3.4-9,6.8-13.7,10c-2.6,1.7-3.5,3.4-2.3,6.6c2.1,5.7,3.7,11.7,5.6,17.5c1.6,5,0.1,8.9-3.9,11.9c-3.9,2.9-8.1,2.8-12.1,0
	c-5-3.5-10.1-7.1-14.9-10.9c-2.5-1.9-4.3-2.2-6.9-0.1c-4.7,3.7-9.6,7.1-14.5,10.6c-4.7,3.3-8.9,3.4-12.9,0.3
	c-4.3-3.3-5.1-7.5-3.4-12.5c1.9-5.7,3.5-11.4,5.6-17c1-2.7,0.6-4.2-1.8-5.8c-5.1-3.5-10-7.2-14.9-10.9c-4.4-3.3-6-7.6-4.3-12.2
	c1.7-4.7,5.4-7,10.4-7.2C14.2,293.8,17.4,293.8,20.5,293.8z M89.2,305c-1.5-0.3-1.8-0.4-2.1-0.4c-5.7,0-11.3-0.1-17-0.1
	c-8.2-0.1-11-2.1-13.5-9.8c-1.9-5.8-3.8-11.5-6.2-18.8c-2.3,6.8-4.1,12-5.9,17.3c-3.2,9.6-5.4,11.2-15.5,11.2c-5.5,0-11,0-17.6,0
	c1.4,1.2,1.6,1.5,1.9,1.7c4.5,3.4,9.1,6.8,13.6,10.2c6.4,4.8,7.5,7.9,5.1,15.4c-1.9,5.9-3.8,11.7-5.9,18.1c1.2-0.4,1.5-0.4,1.8-0.6
	c4.6-3.3,9.3-6.5,13.9-9.8c7.2-5.1,9.8-5.1,17,0.1c4.9,3.5,9.7,7,15.3,10.9c-0.3-1.6-0.4-2-0.5-2.5c-1.6-5.1-3.2-10.1-4.8-15.2
	c-2.7-8.7-1.7-11.7,5.6-17C79.1,312.4,83.7,308.9,89.2,305z"/>
</svg>
