<?xml version="1.0" encoding="utf-8"?>
<!-- Generator: Adobe Illustrator 19.0.0, SVG Export Plug-In . SVG Version: 6.00 Build 0)  -->
<svg version="1.1" id="Layer_1" xmlns="http://www.w3.org/2000/svg" xmlns:xlink="http://www.w3.org/1999/xlink" x="0px" y="0px"
	 viewBox="0 0 496.9 496.8" style="enable-background:new 0 0 496.9 496.8;" xml:space="preserve">
<style type="text/css">
	.st0{fill:#221E1F;}
</style>
<path class="st0" d="M378.5,314.6c21.8,22.1,42.8,43.5,63.8,64.9c8.3,8.4,16.6,16.8,24.9,25.3c4.7,4.8,4.6,8.1-0.1,12.8
	c-25.3,24.9-50.6,49.7-76,74.6c-4.8,4.7-8.1,4.6-13.2-0.6c-29.1-29.5-58.2-59.1-87.3-88.7c-1.4-1.4-2.5-3.1-4-4.9
	c-3,2.7-5.3,4.7-7.6,6.8c-15.5,14.1-31,28.4-46.6,42.3c-3.5,3.1-7.6,5.9-11.9,7.8c-30.2,13.6-60.5,26.9-90.8,40.3
	c-3.7,1.7-7.4,2.9-10.5-0.6c-3.2-3.6-1.9-7.3,0.2-11.1c16.7-29.4,33.2-58.8,49.9-88.2c1.4-2.4,3.3-4.6,5.3-6.5
	c17.6-16.3,35.3-32.5,53.4-49.2c-1.5-1.6-2.7-3-4.1-4.4c-25.1-25.3-50.2-50.7-75.3-76c-5.6-5.7-5.6-8.6,0.1-14.2
	c24.9-24.4,49.7-48.8,74.6-73.1c5.5-5.4,8.8-5.4,14.3,0.2c26.2,26.6,52.3,53.2,78.5,79.9c1.2,1.2,2.1,2.6,3.5,4.3
	c2-1.7,3.5-3,4.9-4.3c26.6-23.7,53.2-47.5,79.8-71.2c6.5-5.8,14.2-8.7,22.6-6.1c4.9,1.5,9.9,4.2,13.6,7.8
	c7.7,7.4,14.6,15.6,21.6,23.6c9.5,10.9,8.6,25.5-2.2,35.2c-25.7,23.3-51.3,46.6-77,69.9C381.5,312.2,380.2,313.2,378.5,314.6z
	 M164.1,253.5c5.8,5.2,12.3,11.1,19.1,17.2c0.4-0.4,1.7-1.5,2.9-2.7c12.8-12.6,25.6-25.3,38.5-37.9c4.3-4.2,7.9-4.7,11.4-1.7
	c3.7,3.2,3.5,7.9-0.8,12.1c-12.8,12.7-25.6,25.3-38.5,37.8c-1.3,1.2-3.2,1.7-4.9,2.6c0.4,0.7,0.8,1.5,1.1,2.2
	c6.2,5.6,12.5,11.2,18.9,17c7.7-7.3,15.9-15.1,24.3-22.8c3.8-3.5,8-3.4,11.1-0.1c3,3.2,2.8,7-0.6,10.7c-2.2,2.3-4.4,4.5-6.7,6.7
	c-5.6,5.6-11.2,11.2-17.4,17.3c6.8,6.2,13,11.9,20.9,19.1c12.5-13.2,25.4-26.9,38.3-40.5c1-1.1,2.1-2.2,3.2-3.1
	c3.4-2.8,7.4-2.7,10.3,0.3c2.9,3,3,6.9,0,10.3c-1.1,1.3-2.4,2.3-3.5,3.5c-12.9,13.5-25.7,27.1-39,41c5.1,4.5,11.6,10.2,18.5,16.2
	c0.3-0.3,1.2-1.7,2.4-2.9c6.3-6.4,12.7-12.8,19.1-19.1c4.1-4,8-4.3,11.4-1.1c3.5,3.3,3.1,7.5-1,11.7c-2.9,3-5.9,5.9-8.8,8.8
	c-4.7,4.6-9.4,9.2-14.6,14.3c6.9,6.1,13.1,11.7,19.6,17.5c0.5-0.5,1.8-1.7,3.1-2.9c12.7-12.5,25.4-25,38.2-37.5
	c4.3-4.2,8.4-4.7,11.8-1.5c3.5,3.4,3.1,7.7-1.4,12.1c-12.7,12.5-25.4,25-38.2,37.4c-1.3,1.2-3.2,1.9-5.4,3.1
	c8,7.1,14.3,12.8,20.9,18.7c1.1-1.1,2.8-3.1,4.7-5c6-6,11.9-12.1,18.1-18c3.4-3.3,7.7-3,10.7,0.1c2.8,3,2.8,6.9-0.1,10.3
	c-1.1,1.3-2.3,2.4-3.5,3.6c-6.8,6.7-13.7,13.5-19.9,19.6c6.6,6.6,12.6,12.7,18.8,18.9c1-0.9,2.3-2.2,3.6-3.4
	c12.7-12.5,25.4-25,38.1-37.5c4.3-4.2,8.4-4.6,11.8-1.1c3.3,3.3,2.9,7.6-1.3,11.8c-10.8,10.7-21.6,21.3-32.4,31.9
	c-3.2,3.1-6.3,6.3-9.1,9.1c6.3,6.3,12.4,12.3,18.8,18.6c21.7-21.2,43.8-42.9,66.2-64.7c-74.2-75.4-148.1-150.6-222.6-226.4
	C207.9,208.2,186.4,230.5,164.1,253.5z M420.9,256.7c9.8-8.8,19.3-17.1,28.5-25.7c4.9-4.6,5.4-9.9,1-15.1
	c-7-8.3-14.2-16.3-21.6-24.1c-4-4.2-9.7-4.7-14-0.9c-9.6,8.6-18.9,17.7-28.5,26.7C397.9,230.7,409.2,243.5,420.9,256.7z M210,443.5
	c-10.8-11.8-21-23-31.6-34.6c-12,21.5-23.6,42.3-35.2,63.1c0.3,0.3,0.6,0.5,0.9,0.8C165.8,463.1,187.5,453.5,210,443.5z
	 M222.9,435.2c17.6-16,34.6-31.6,51.9-47.4c-4.7-5-9.1-9.6-13.6-14.3c-17.6,15.8-34.6,31.1-51.9,46.7
	C213.9,425.2,218.2,430,222.9,435.2z M199.6,409.5c17.4-15.6,34.5-31,51.4-46.2c-4.2-4.4-8.2-8.6-12.5-13.1
	c-17,15.5-33.9,30.9-51,46.5C191.6,401.2,195.5,405.2,199.6,409.5z M373.4,228.1c-14.4,13.1-28.2,25.7-42.1,38.4
	c4.5,4.7,8.6,9,12.8,13.4c14.2-12.9,27.9-25.5,42.1-38.3C381.9,237.1,377.8,232.8,373.4,228.1z M355.2,290.1
	c4.6,4.6,8.9,8.9,13.5,13.5c13.3-12.1,26.9-24.5,40.8-37.1c-4.4-4.7-8.5-8.9-12.8-13.5C382.6,265.6,368.8,278,355.2,290.1z"/>
<path class="st0" d="M481.8,141c-155.8,0-310.9,0-466.4,0c-0.1,2-0.2,3.8-0.2,5.5c0,69.2,0,138.3,0,207.5c0,10,2.7,12.6,12.8,12.6
	c46,0,92-0.1,138,0.1c3,0,6.7,1.2,8.8,3.2c1.4,1.4,1.5,5.7,0.4,7.7c-1.1,2-4.4,3.7-6.8,3.8c-15.2,0.3-30.3,0.2-45.5,0.2
	c-32,0-64,0-96,0C9.9,381.6,0,371.9,0,355.1C0,242.9,0,130.8,0,18.7C0,5.6,5.5,0,18.5,0c52,0,104,0,156,0c19.5,0,34.7,7.7,45.1,24.5
	c5,8.1,10.5,15.8,15.4,23.9c2,3.3,4.2,4.3,8,4.3c75.3-0.1,150.6-0.1,226-0.1c16.4,0,27.9,11.4,27.9,27.9c0,91.5,0,183,0,274.4
	c0,17-9.7,26.6-26.7,26.6c-4,0-8,0.1-12-0.1c-4.6-0.2-7.1-2.9-7.1-7.3c0-4.3,2.5-7.3,7-7.6c4-0.3,8-0.1,12-0.1
	c8.7-0.1,11.8-3,11.8-11.6c0-63,0-126,0-189C481.8,157.8,481.8,149.7,481.8,141z M15.4,125.3c155.3,0,310.3,0,465.5,0
	c0.1-2,0.2-3.6,0.3-5.2c0-13.3,0-26.7,0-40c0-7.8-4.6-12.4-12.4-12.4c-9.5,0-19,0-28.5,0c-68,0-136,0-203.9,0.1
	c-5.1,0-8.3-1.6-11-5.9c-6.3-10.2-13.4-19.9-19.7-30.1c-7.2-11.6-17.6-16.7-30.9-16.6c-51.3,0-102.6,0-153.9,0
	c-1.8,0-3.5,0.1-5.4,0.2C15.4,52.3,15.4,88.7,15.4,125.3z"/>
<path class="st0" d="M102.9,204.7c-19.2,0-38.3,0-57.5,0c-4.6,0-7.9-1.6-9-6.1c-1.3-5.3,2.3-8.9,8.9-8.9c16.7-0.1,33.3,0,50,0
	c21.5,0,43,0,64.4,0c3.6,0,7,0.4,8.9,4.2c2.6,5.4-0.9,10.8-7.3,10.8c-14.7,0.1-29.3,0-44,0C112.5,204.7,107.7,204.7,102.9,204.7
	C102.9,204.7,102.9,204.7,102.9,204.7z"/>
<path class="st0" d="M102.8,309.5c19.3,0,38.6-0.1,58,0.2c2.6,0,6,1.6,7.4,3.7c1.2,1.8,1.2,6.1-0.2,7.7c-1.7,2-5.3,3.4-8.1,3.4
	c-27.5,0.2-55,0.1-82.4,0.1c-10.7,0-21.3,0-32,0c-5.6,0-9.1-3-9.2-7.6c-0.1-4.8,3-7.4,9.1-7.4C64.5,309.4,83.6,309.5,102.8,309.5z"
	/>
<path class="st0" d="M83.9,249.3c13,0,26,0,38.9,0c6,0,8.6,2.3,8.7,7.2c0.1,5.1-2.7,7.8-8.7,7.8c-25.9,0.1-51.9,0.1-77.9,0
	c-5.8,0-8.9-3-8.8-7.9c0.1-4.8,2.8-7.1,8.8-7.1C58,249.3,71,249.3,83.9,249.3z"/>
</svg>
