<?xml version="1.0" encoding="utf-8"?>
<!-- Generator: Adobe Illustrator 19.0.0, SVG Export Plug-In . SVG Version: 6.00 Build 0)  -->
<svg version="1.1" id="Layer_1" xmlns="http://www.w3.org/2000/svg" xmlns:xlink="http://www.w3.org/1999/xlink" x="0px" y="0px"
	 viewBox="0 0 381.8 381.8" style="enable-background:new 0 0 381.8 381.8;" xml:space="preserve">
<style type="text/css">
	.st0{fill:#EFBF31;}
</style>
<path class="st0" d="M381.8,190.9c0,105.4-85,190.6-190.6,190.9C85.7,382.1,0.2,296.8,0,191.1C-0.2,85.5,85.2,0.1,190.8,0
	C296.5-0.1,381.8,85.3,381.8,190.9z M191.1,20.4C97.3,20.2,20.3,97.2,20.5,191.1c0.2,93.8,76.8,170.4,170.5,170.3
	c93.8-0.1,170.4-76.6,170.4-170.4C361.5,97.2,285,20.7,191.1,20.4z"/>
<path class="st0" d="M295,190.4c-35.8-35.8-71.9-71.9-108.5-108.5c-4.4,4.6-8.9,9.4-14.4,15.3c27.8,27,55.4,53.9,83,80.8
	c-0.4,0.6-0.8,1.2-1.1,1.9c-54.6,0-109.2,0-164.2,0c0,7.6,0,14.5,0,21.9c54.9,0,109.5,0,164,0c0.2,0.4,0.4,0.7,0.6,1.1
	c-27.1,27.3-54.2,54.7-81.7,82.4c4.7,5,9.2,9.7,13.3,14.1C222.6,263,258.8,226.7,295,190.4z"/>
</svg>
