<?xml version="1.0" encoding="utf-8"?>
<!-- Generator: Adobe Illustrator 19.0.0, SVG Export Plug-In . SVG Version: 6.00 Build 0)  -->
<svg version="1.1" id="Layer_1" xmlns="http://www.w3.org/2000/svg" xmlns:xlink="http://www.w3.org/1999/xlink" x="0px" y="0px"
	 viewBox="0 0 371.5 221.8" style="enable-background:new 0 0 371.5 221.8;" xml:space="preserve">
<style type="text/css">
	.st0{fill:#221E1F;}
</style>
<path class="st0" d="M199.7,191.2c-9,0-17.6,0-26.3,0c-35.3,0-70.7-0.2-106,0c-14.1,0.1-25.3-4.4-33.3-16.4
	c-0.7-1.1-2.6-1.8-4.1-1.9c-4.8-0.2-9.7-0.1-14.5-0.1C6.5,172.7,0.6,167,0,158c-0.1-1.2,0-2.3,0-3.5c0-9.5,3.2-12.4,12.6-10.2
	c2,0.4,3.7,3.2,4.9,5.2c0.7,1.2,0.3,3.2,0.4,5.2c3.6,0,7,0,11,0c0.8-7.8,1.7-15.7,2.5-23.5c2.6-23.5,4.1-47.1,8.1-70.4
	c5.8-34.2,37-60.2,71.6-60.4c64.5-0.4,129-0.4,193.5,0c37.3,0.2,66.6,30.3,66.7,67.5c0.1,33.5,0.1,67,0,100.5
	c0,12.6-9.6,22.6-22.3,22.8c-24.5,0.3-49,0-73.5,0.2c-4.2,0-3.9-2.4-4.2-5.1c-1.5-15.4-11.7-27.3-26.3-31
	c-14.9-3.8-31.2,1.9-38.9,14.6c-2.9,4.8-4,10.8-5.8,16.2C200,187.5,200,189.2,199.7,191.2z M208.4,18c-15.2,0-30.3-0.1-45.5,0
	c-19.8,0.2-39.7-0.4-59.4,1.2c-22.7,1.8-44.5,24.2-47,46.7c-3.3,28.9-6.3,57.9-9.2,86.9c-1.4,13.2,5.3,20.7,18.5,20.7
	c38.2,0.1,76.3,0,114.5,0.1c3.4,0,4.9-1.1,6.1-4.2c8.1-20.1,27.8-33.2,49.7-33.1c21.9,0,41.5,13.1,49.5,33.3c1.2,2.9,2.5,4,5.7,4
	c18.2-0.1,36.3,0,54.5-0.1c6.6,0,7.8-1.3,7.8-7.9c0-32.7,0-65.3,0-98c0-2.7-0.1-5.4-0.6-7.9c-4.9-25.1-24.4-41.4-50.1-41.5
	C271.4,17.8,239.9,18,208.4,18z"/>
<path class="st0" d="M236.1,221.8c-17.5,0.1-32.4-14.3-32.4-31.3c0-17,14.8-31.4,32.3-31.3c17.4,0.1,31.9,14.1,32.1,31
	C268.5,207.1,253.6,221.7,236.1,221.8z M235.7,204c7.6,0.1,14.6-6.2,14.7-13.4c0.1-7-6.4-13.3-14-13.6c-7.7-0.3-14.6,5.8-14.9,13.1
	C221.3,197.3,228,203.8,235.7,204z"/>
<path class="st0" d="M256.5,121.8c-13.5,0-27,0-40.5,0c-12.1,0-18.4-6.5-18.4-18.5c0-11.2,0-22.3,0-33.5c0-10.6,6.8-17.6,17.4-17.6
	c28-0.1,55.9-0.1,83.9,0c11.2,0,17.6,6.7,17.6,17.8c0,11.3,0,22.6,0,34c0,11.3-6.6,17.8-18,17.8
	C284.4,121.8,270.5,121.8,256.5,121.8z M215.7,103.7c27.8,0,55.2,0,82.5,0c0-11.4,0-22.4,0-33.4c-27.7,0-54.9,0-82.5,0
	C215.7,81.4,215.7,92.4,215.7,103.7z"/>
<path class="st0" d="M137.2,70.3c-12.8,0-25.1,0-37.9,0c0,2.1,0,4.1,0,6c0,25.2,0,50.3,0,75.5c0,8.2-7.8,12.7-14.8,8.2
	c-1.5-1-2.9-3.5-2.9-5.3c-0.2-29.7-0.2-59.3-0.1-89c0-7.2,6.4-13.3,14.2-13.4c14.8-0.3,29.7-0.3,44.5,0c9.3,0.2,14.6,6.6,14.6,16.7
	c0.1,13,0,26,0,39c0,14.8,0,29.7-0.1,44.5c0,7.3-1.6,8.5-10.2,8.4c-5.8-0.1-7.5-1.8-7.5-8.5c0-25.3,0-50.7,0-76
	C137.2,74.5,137.2,72.5,137.2,70.3z"/>
</svg>
