<?xml version="1.0" encoding="utf-8"?>
<!-- Generator: Adobe Illustrator 19.0.0, SVG Export Plug-In . SVG Version: 6.00 Build 0)  -->
<svg version="1.1" id="Layer_1" xmlns="http://www.w3.org/2000/svg" xmlns:xlink="http://www.w3.org/1999/xlink" x="0px" y="0px"
	 viewBox="0 0 500.9 409.8" style="enable-background:new 0 0 500.9 409.8;" xml:space="preserve">
<style type="text/css">
	.st0{fill:#221E1F;}
</style>
<path class="st0" d="M512,318.8c-2.4,4.9-6.6,5.9-11.7,5.9c-84.1-0.1-168.3-0.1-252.4-0.1c-3.1,0-6.3,0-9.3,0
	c-8.8,41.3-44.3,55.1-70.9,50.1c-27.4-5.1-48.9-30.9-48.3-59.2c0.5-29.6,22.3-54.5,50.2-58.7c28.9-4.4,61.5,12.8,69,50.5
	c2,0,4.1,0,6.3,0c85,0,169.9,0,254.9,0c5.1,0,9.6,0.5,12.4,5.5C512,314.8,512,316.8,512,318.8z M136.7,315.6c0,24.2,18.6,43,42.5,43
	c23.9-0.1,42.8-19,42.7-42.9c-0.1-23.7-18.7-42.2-42.6-42.3C155.4,273.3,136.7,291.8,136.7,315.6z"/>
<path class="st0" d="M512,404.8c-2.7,3.9-6.4,5-11.1,5c-44.1-0.1-88.3-0.1-132.4-0.1c-7.7,0-11.8-4.8-9.8-11.2
	c1.5-4.6,4.9-5.8,9.3-5.8c33.5,0.1,67,0,100.4,0c10.8,0,21.7,0.2,32.5-0.1c4.7-0.1,8.4,1.1,11,5.1C512,400.1,512,402.5,512,404.8z"
	/>
<path class="st0" d="M17.4,204.6c14.2,1.1,16.3,2.2,16.6,8.4c0.2,4.1-1.4,7.5-5.5,8.4c-3.5,0.8-7.2,0.6-11.2,0.8
	c0,5.4,0,10.7,0,16.2c6.2,1.7,16.5-2.5,16.5,9.1c0,11.7-10.3,7.4-16.8,9.3c0,14.1-0.1,28.1,0.1,42c0.1,5.9,3.3,8.4,10,8.4
	c20.3,0,40.7,0,61,0c3.2,0,6.3-0.1,9.5,0.1c5.8,0.3,9.1,3.4,9.1,8.5c0,5.2-3.5,8.7-9.4,8.7c-15.5,0.1-31,0.1-46.5,0.1
	c-8.2,0-16.3,0.1-24.5,0C10.5,324.3,0,313.8,0,298.1c0-73.2,0-146.3,0-219.5C0,33.5,33.5,0,78.7,0c53.3,0,106.6,0,160,0
	C291.8,0,345,0,398.1,0c26.9,0,49,10,65.1,31.8C473.7,46,478,62.1,477.9,79.6c-0.1,64.3-0.1,128.6-0.1,193c0,2.8,0.1,5.7,0,8.5
	c-0.2,5.9-3.5,9.4-8.8,9.3c-5-0.1-8.2-3.4-8.2-9.3c-0.1-22.2,0-44.3-0.1-66.5c0-45.8,0.1-91.6-0.1-137.5
	c-0.1-25.7-14.9-47.5-38-55.7c-7.2-2.6-15.2-3.9-22.9-3.9c-92.3-0.3-184.6-0.2-276.9-0.2c-16,0-32-0.3-48,0.2
	C42.5,18.6,17.7,43,17.2,75.4c-0.7,42.5-0.2,85-0.2,127.5C17,203.4,17.2,203.8,17.4,204.6z"/>
<path class="st0" d="M392.1,120c-22.8,0-45.1,0-67.6,0c0,28.3,0,56.4,0,84.9c3.1,0,5.9-0.1,8.7,0c5.2,0.3,8.2,3.7,8.1,8.9
	c-0.1,4.9-3,7.8-8.2,8.2c-8.9,0.6-8.8,0.6-8.8,9.6c0,16.3,0,32.7,0,49c0,4.1-0.9,7.6-5.3,9.2c-6.5,2.3-11.7-1.7-11.8-9.1
	c-0.1-16.5-0.1-33-0.1-49.5c0-36.2,0-72.3,0-108.5c0-13.8,6.3-20,20.2-20.1c21.2,0,42.3,0,63.5,0c12,0,18.9,6.8,18.9,18.9
	c0,52.7,0,105.3,0,158c0,4-0.5,7.8-4.5,9.8c-6.4,3.3-12.7-0.9-12.8-8.6c-0.2-12.3-0.1-24.7-0.1-37c0-39.8,0-79.6,0-119.5
	C392.3,123,392.2,121.7,392.1,120z"/>
<path class="st0" d="M237.4,68.6c-63,0-125.9,0-188.9,0c-2.5,0-5-0.1-7.4-0.8c-4.1-1.2-5.5-4.5-5.2-8.6c0.2-4,2.2-6.6,6.1-7.5
	c1.8-0.4,3.6-0.5,5.5-0.5c126.3,0,252.5,0,378.8,0c2.5,0,5,0,7.5,0.3c4.1,0.5,6.7,2.7,7.2,7c0.5,4.6-1.3,7.9-5.8,9.3
	c-2.2,0.7-4.6,0.8-6.9,0.8C364.7,68.6,301,68.6,237.4,68.6z"/>
<path class="st0" d="M68.1,154c0-11,0-22,0-33c0.1-11.4,7-18.3,18.4-18.4c16.3-0.1,32.6-0.1,49,0c11,0.1,18.1,7,18.2,18.1
	c0.2,22,0.2,44,0,66c-0.1,11.2-7,18-18.2,18.1c-16.7,0.1-33.3,0.1-50,0c-10.4-0.1-17.3-7.4-17.4-17.8C68.1,176,68.1,165,68.1,154z
	 M85.5,187.6c17.1,0,33.7,0,50.5,0c0-22.6,0-45,0-67.5c-17,0-33.7,0-50.5,0C85.5,142.7,85.5,164.9,85.5,187.6z"/>
<path class="st0" d="M272.9,154c0,11.2,0.1,22.3,0,33.5c-0.1,10.3-6.9,17.3-17.2,17.4c-17.2,0.2-34.3,0.2-51.5,0
	c-9.4-0.1-16.4-7.1-16.5-16.5c-0.2-23-0.2-46,0-68.9c0.1-9.8,7.1-16.5,16.9-16.6c17-0.2,34-0.2,51,0c10.3,0.1,17.1,7.1,17.2,17.4
	C273,131.4,272.9,142.7,272.9,154z M255.6,187.7c0-22.9,0-45.3,0-67.6c-17.1,0-33.8,0-50.4,0c0,22.7,0,45.1,0,67.6
	C222.1,187.7,238.7,187.7,255.6,187.7z"/>
<path class="st0" d="M67.9,409.7c-19.3,0-38.6,0-58,0c-6.7,0-9.9-2.7-10-8.4c-0.1-5.7,3.1-8.6,9.8-8.6c39,0,77.9,0.1,116.9-0.2
	c8.2-0.1,12.3,7.4,8.5,12.9c-1.5,2.2-5.4,4-8.3,4C107.3,409.9,87.6,409.7,67.9,409.7z"/>
<path class="st0" d="M222,409.7c-13.8,0-27.7,0-41.5,0c-6.5,0-9.8-3-9.8-8.6c0.1-5.5,3.2-8.3,9.5-8.3c27.8,0,55.7,0,83.5,0
	c6.2,0,9.3,3,9.2,8.6c0,5.5-3.2,8.3-9.5,8.4C249.6,409.8,235.8,409.7,222,409.7z"/>
<path class="st0" d="M324.1,409.7c-3,0-6,0.1-9,0c-4.9-0.3-8-3.5-8-8.4c0-4.9,3-8.3,7.9-8.5c6.2-0.2,12.3-0.2,18.5,0
	c4.8,0.1,7.6,3.3,7.7,8.1c0.1,5-2.7,8.4-7.6,8.8C330.5,409.9,327.3,409.7,324.1,409.7z"/>
<path class="st0" d="M204.8,315.9c-0.1,14.6-11.5,25.9-26.2,25.7c-14.1-0.2-25.1-11.4-25.1-25.7c0-14.5,11.1-25.7,25.6-25.7
	C193.5,290.2,204.9,301.6,204.8,315.9z M179.7,307.6c-5.3-0.2-8.7,2.7-8.9,7.8c-0.2,5.2,2.8,8.7,7.8,9c5.1,0.3,8.7-2.9,9-7.9
	C187.9,311.5,184.7,307.8,179.7,307.6z"/>
</svg>
