<?xml version="1.0" encoding="utf-8"?>
<!-- Generator: Adobe Illustrator 19.0.0, SVG Export Plug-In . SVG Version: 6.00 Build 0)  -->
<svg version="1.1" id="Layer_1" xmlns="http://www.w3.org/2000/svg" xmlns:xlink="http://www.w3.org/1999/xlink" x="0px" y="0px"
	 viewBox="-114 206.2 381.8 381.8" style="enable-background:new -114 206.2 381.8 381.8;" xml:space="preserve">
<style type="text/css">
	.st0{fill:#EFBF31;}
</style>
<path class="st0" d="M77,206.2c105.6,0.1,191,85.5,190.8,191.1C267.6,503,182.1,588.3,76.6,588C-29,587.7-114,502.5-114,397.1
	C-114,291.5-28.7,206.1,77,206.2z M-93.6,397.2c0,93.8,76.6,170.3,170.4,170.4c93.7,0.1,170.3-76.5,170.5-170.3
	c0.2-93.9-76.8-170.9-170.6-170.7C-17.2,226.9-93.7,303.4-93.6,397.2z"/>
<path class="st0" d="M81.8,505.6c4.1-4.4,8.6-9.1,13.3-14.1c-27.5-27.7-54.6-55.1-81.7-82.4c0.2-0.4,0.4-0.7,0.6-1.1
	c54.5,0,109.1,0,164,0c0-7.4,0-14.3,0-21.9c-55,0-109.6,0-164.2,0c-0.3-0.7-0.7-1.3-1.1-1.9c27.6-26.9,55.2-53.8,83-80.8
	c-5.5-5.9-10-10.7-14.4-15.3C44.7,324.7,8.6,360.8-27.2,396.6C9,432.9,45.2,469.2,81.8,505.6z"/>
</svg>
