<?xml version="1.0" encoding="utf-8"?>
<!-- Generator: Adobe Illustrator 19.2.0, SVG Export Plug-In . SVG Version: 6.00 Build 0)  -->
<svg version="1.1" id="Layer_1" xmlns="http://www.w3.org/2000/svg" xmlns:xlink="http://www.w3.org/1999/xlink" x="0px" y="0px"
	 viewBox="0 0 860.5 583.1" style="enable-background:new 0 0 860.5 583.1;" xml:space="preserve">
<style type="text/css">
	.st0{fill:#2B2B6E;}
	.st1{fill:#404041;}
</style>
<g>
	<g>
		<path class="st0" d="M404.7,180.4L341.2,244c-4.5,4.5-11.9,4.5-16.4,0l-63.5-63.5c-4.5-4.5-4.5-11.9,0-16.4l63.5-63.5
			c4.5-4.5,11.9-4.5,16.4,0l63.5,63.5C409.2,168.6,409.2,175.9,404.7,180.4z"/>
		<path class="st0" d="M502,277.8l-63.5,63.5c-4.5,4.5-11.9,4.5-16.4,0l-63.5-63.5c-4.5-4.5-4.5-11.9,0-16.4l63.5-63.5
			c4.5-4.5,11.9-4.5,16.4,0l63.5,63.5C506.5,265.9,506.5,273.3,502,277.8z"/>
		<path class="st0" d="M501.9,83.2l-63.5,63.5c-4.5,4.5-11.9,4.5-16.4,0l-63.5-63.5c-4.5-4.5-4.5-11.9,0-16.4L422,3.4
			c4.5-4.5,11.9-4.5,16.4,0l63.5,63.5C506.4,71.4,506.4,78.7,501.9,83.2z"/>
		<path class="st0" d="M599.2,180.6l-63.5,63.5c-4.5,4.5-11.9,4.5-16.4,0l-63.5-63.5c-4.5-4.5-4.5-11.9,0-16.4l63.5-63.5
			c4.5-4.5,11.9-4.5,16.4,0l63.5,63.5C603.7,168.7,603.7,176.1,599.2,180.6z"/>
	</g>
	<g>
		<path class="st0" d="M117.6,581.2c0,0.6-0.1,0.9-0.3,1s-0.5,0.2-1.1,0.2h-4.4c-0.4,0-0.8-0.1-1-0.2s-0.4-0.5-0.4-1v-36.8
			c0-1.1,0.2-1.9,0.7-2.5s1.3-0.9,2.6-0.9h14c2,0,3.8,0.3,5.4,0.9c1.6,0.6,3,1.5,4.2,2.6c1.2,1.1,2.1,2.5,2.7,4c0.6,1.6,1,3.2,1,5.1
			c0,1.1-0.2,2.3-0.5,3.8c-0.3,1.5-1,2.9-2,4.3c-1,1.4-2.4,2.5-4.2,3.5c-1.8,1-4.2,1.4-7.1,1.4h-9.6V581.2z M133.6,554.2
			c0-0.7-0.1-1.4-0.3-2.2c-0.2-0.8-0.6-1.5-1.1-2.2c-0.5-0.6-1.3-1.2-2.2-1.6c-0.9-0.4-2.1-0.6-3.6-0.6h-8.7v13.1h8.8
			c2.5,0,4.3-0.6,5.4-1.8C133.1,557.6,133.6,556.1,133.6,554.2z"/>
		<path class="st0" d="M161.5,543.5c0,1.2-0.4,2.2-1.2,3c-0.8,0.8-1.8,1.2-3,1.2s-2.2-0.4-3-1.2c-0.8-0.8-1.2-1.8-1.2-3
			c0-1.2,0.4-2.2,1.2-3c0.8-0.8,1.8-1.2,3-1.2s2.2,0.4,3,1.2C161.1,541.3,161.5,542.3,161.5,543.5z M160.6,581.5
			c0,0.4-0.1,0.7-0.3,0.8s-0.5,0.2-0.9,0.2h-4.5c-0.4,0-0.7-0.1-0.9-0.2s-0.3-0.4-0.3-0.8v-28.9c0-0.4,0.1-0.7,0.3-0.8
			s0.5-0.2,0.9-0.2h4.5c0.4,0,0.7,0.1,0.9,0.2s0.3,0.4,0.3,0.8V581.5z"/>
		<path class="st0" d="M197.8,573.8c0,1.6-0.3,2.9-0.9,4.1c-0.6,1.2-1.4,2.2-2.5,2.9s-2.3,1.3-3.7,1.7c-1.4,0.4-3,0.6-4.6,0.6
			c-0.9,0-1.9,0-3-0.1c-1.1-0.1-2.1-0.2-3.2-0.4c-1.1-0.2-2.1-0.5-3.1-0.8c-1-0.3-1.9-0.7-2.7-1.2c-0.6-0.3-0.7-0.8-0.4-1.4l1.4-3.3
			c0.2-0.4,0.4-0.6,0.6-0.7c0.2-0.1,0.5,0,0.9,0.1c1.4,0.7,3,1.2,4.7,1.6c1.7,0.4,3.3,0.6,4.6,0.6c1.6,0,2.9-0.3,3.7-1
			c0.8-0.6,1.2-1.5,1.2-2.5c0-1.1-0.5-2-1.6-2.7c-1.1-0.7-2.7-1.4-4.8-2.2c-1.6-0.6-3-1.2-4.2-1.8c-1.2-0.6-2.2-1.2-3-2
			c-0.8-0.7-1.4-1.5-1.8-2.4c-0.4-0.9-0.6-1.9-0.6-3.1c0-1.3,0.2-2.5,0.7-3.6c0.5-1.1,1.2-2,2.1-2.8c0.9-0.8,2.1-1.4,3.5-1.9
			c1.4-0.5,3-0.7,4.8-0.7c1.6,0,3.3,0.1,4.9,0.4c1.6,0.3,3.2,0.8,4.8,1.4c0.3,0.2,0.5,0.4,0.6,0.6c0.1,0.2,0,0.5,0,0.8l-1.4,3.4
			c-0.1,0.3-0.3,0.5-0.4,0.5c-0.2,0-0.4,0-0.7-0.1c-1.5-0.5-2.9-0.9-4-1.1c-1.2-0.2-2.4-0.3-3.7-0.3c-1.5,0-2.5,0.3-3.2,0.9
			c-0.7,0.6-1,1.3-1,2c0,0.6,0.1,1,0.3,1.4c0.2,0.4,0.6,0.8,1,1.1c0.5,0.3,1.1,0.7,1.9,1c0.8,0.4,1.7,0.7,2.8,1.1
			c1.3,0.5,2.5,1,3.7,1.5c1.2,0.5,2.3,1.2,3.2,1.9c0.9,0.7,1.7,1.6,2.2,2.7C197.5,571.1,197.8,572.4,197.8,573.8z"/>
		<path class="st0" d="M237.1,566.9c0,5.2-1.2,9.2-3.6,12c-2.4,2.8-6,4.2-10.8,4.2c-4.8,0-8.3-1.4-10.6-4.1c-2.3-2.7-3.5-6.7-3.5-12
			c0-2.6,0.4-4.9,1.1-6.9c0.7-2,1.7-3.7,2.9-5.1c1.3-1.4,2.8-2.4,4.5-3.2c1.7-0.7,3.7-1.1,5.8-1.1c4.7,0,8.2,1.4,10.6,4.3
			C235.8,558,237.1,561.9,237.1,566.9z M230,567c0-1.4-0.1-2.8-0.3-4c-0.2-1.3-0.6-2.4-1.1-3.3c-0.5-1-1.3-1.7-2.2-2.3
			c-0.9-0.6-2.1-0.8-3.5-0.8c-1.3,0-2.4,0.3-3.3,0.8s-1.7,1.3-2.4,2.2c-0.6,0.9-1.1,2-1.4,3.3c-0.3,1.3-0.4,2.6-0.4,4.1
			c0,3.3,0.5,5.9,1.6,7.7c1.1,1.9,2.9,2.8,5.7,2.8c1.4,0,2.5-0.3,3.5-0.9c0.9-0.6,1.7-1.3,2.3-2.3c0.6-0.9,1-2,1.2-3.3
			C229.9,569.7,230,568.4,230,567z"/>
		<path class="st0" d="M271.8,573.8c0,1.6-0.3,2.9-0.9,4.1c-0.6,1.2-1.4,2.2-2.5,2.9s-2.3,1.3-3.7,1.7c-1.4,0.4-3,0.6-4.6,0.6
			c-0.9,0-1.9,0-3-0.1c-1.1-0.1-2.1-0.2-3.2-0.4c-1.1-0.2-2.1-0.5-3.1-0.8c-1-0.3-1.9-0.7-2.7-1.2c-0.6-0.3-0.7-0.8-0.4-1.4l1.4-3.3
			c0.2-0.4,0.4-0.6,0.6-0.7c0.2-0.1,0.5,0,0.9,0.1c1.4,0.7,3,1.2,4.7,1.6c1.7,0.4,3.3,0.6,4.6,0.6c1.6,0,2.9-0.3,3.7-1
			c0.8-0.6,1.2-1.5,1.2-2.5c0-1.1-0.5-2-1.6-2.7c-1.1-0.7-2.7-1.4-4.8-2.2c-1.6-0.6-3-1.2-4.2-1.8c-1.2-0.6-2.2-1.2-3-2
			c-0.8-0.7-1.4-1.5-1.8-2.4c-0.4-0.9-0.6-1.9-0.6-3.1c0-1.3,0.2-2.5,0.7-3.6c0.5-1.1,1.2-2,2.1-2.8c0.9-0.8,2.1-1.4,3.5-1.9
			c1.4-0.5,3-0.7,4.8-0.7c1.6,0,3.3,0.1,4.9,0.4c1.6,0.3,3.2,0.8,4.8,1.4c0.3,0.2,0.5,0.4,0.6,0.6c0.1,0.2,0,0.5,0,0.8l-1.4,3.4
			c-0.1,0.3-0.3,0.5-0.4,0.5c-0.2,0-0.4,0-0.7-0.1c-1.5-0.5-2.9-0.9-4-1.1c-1.2-0.2-2.4-0.3-3.7-0.3c-1.5,0-2.5,0.3-3.2,0.9
			c-0.7,0.6-1,1.3-1,2c0,0.6,0.1,1,0.3,1.4c0.2,0.4,0.6,0.8,1,1.1c0.5,0.3,1.1,0.7,1.9,1c0.8,0.4,1.7,0.7,2.8,1.1
			c1.3,0.5,2.5,1,3.7,1.5c1.2,0.5,2.3,1.2,3.2,1.9c0.9,0.7,1.7,1.6,2.2,2.7C271.5,571.1,271.8,572.4,271.8,573.8z"/>
		<path class="st0" d="M314.4,582.3c-0.2,0.1-0.6,0.2-1.1,0.2h-4.5c-0.5,0-0.8-0.1-1-0.2c-0.2-0.2-0.3-0.5-0.3-1v-38.8
			c0-0.5,0.1-0.8,0.3-1c0.2-0.2,0.6-0.2,1-0.2h4.5c0.5,0,0.9,0.1,1.1,0.2c0.2,0.1,0.3,0.5,0.3,1v38.8
			C314.6,581.8,314.5,582.1,314.4,582.3z"/>
		<path class="st0" d="M340.9,556.7c-0.4,0-1.1,0-1.9,0c-0.8,0-1.7,0.1-2.8,0.3v24.4c0,0.4-0.1,0.7-0.2,0.8
			c-0.2,0.1-0.5,0.2-0.9,0.2h-4.6c-0.4,0-0.7-0.1-0.9-0.2s-0.3-0.4-0.3-0.8v-25.2c0-1.4,0.3-2.5,0.8-3.3c0.5-0.8,1.6-1.3,3.2-1.6
			c0.4,0,0.9-0.1,1.6-0.2c0.7-0.1,1.4-0.1,2.1-0.2c0.7,0,1.5-0.1,2.2-0.1c0.7,0,1.3-0.1,1.8-0.1c2.6,0,4.8,0.3,6.7,0.8
			c1.9,0.5,3.5,1.4,4.7,2.6c1.2,1.2,2.1,2.8,2.7,4.7c0.6,1.9,0.9,4.2,0.9,7v15.6c0,0.4-0.1,0.7-0.2,0.8c-0.2,0.1-0.4,0.2-0.9,0.2
			h-4.6c-0.4,0-0.7-0.1-0.8-0.2s-0.3-0.4-0.3-0.8v-15.7c0-1.5-0.1-2.9-0.4-4c-0.3-1.1-0.7-2.1-1.3-2.8c-0.6-0.7-1.5-1.3-2.6-1.7
			C343.9,556.9,342.6,556.7,340.9,556.7z"/>
		<path class="st0" d="M388.4,581.7c0,0.2-0.2,0.3-0.6,0.5c-1.3,0.4-2.7,0.7-4,0.8c-1.3,0.1-2.4,0.1-3.1,0.1c-3.2,0-5.5-0.7-6.8-2.1
			c-1.3-1.4-2-3.5-2-6.3v-18h-4.2c-0.4,0-0.7-0.1-0.8-0.3c-0.1-0.2-0.1-0.4-0.1-0.7v-2.4c0-0.4,0.1-0.6,0.2-0.8
			c0.1-0.2,0.4-0.3,0.8-0.4l4.5-1l0.8-5.6c0.1-0.4,0.2-0.7,0.4-0.9c0.2-0.2,0.5-0.3,0.9-0.5l3.4-1.2c0.3-0.1,0.6,0,0.8,0.1
			c0.2,0.1,0.3,0.4,0.3,0.9v7.5h6.3c0.4,0,0.7,0.1,0.8,0.3c0.1,0.2,0.1,0.4,0.1,0.7v3.3c0,0.4,0,0.6-0.1,0.8
			c-0.1,0.2-0.4,0.2-0.8,0.2h-6.3v17.1c0,1.3,0.3,2.1,0.9,2.6c0.6,0.5,1.5,0.7,2.7,0.7c0.2,0,0.5,0,0.9,0c0.4,0,0.8,0,1.2-0.1
			c0.4,0,0.8-0.1,1.2-0.1c0.4-0.1,0.8-0.1,1-0.1c0.4-0.1,0.6-0.1,0.8,0c0.1,0.1,0.2,0.3,0.2,0.6l0.6,3.8
			C388.5,581.4,388.5,581.6,388.4,581.7z"/>
		<path class="st0" d="M411.7,550.8c4.5,0,7.9,1.2,10,3.5c2.2,2.3,3.3,5.5,3.3,9.5c0,1-0.1,1.9-0.4,2.5c-0.2,0.7-0.6,1.2-1,1.6
			c-0.4,0.4-0.9,0.7-1.5,0.8c-0.6,0.2-1.2,0.2-1.9,0.2h-15.7c0,1.5,0.3,2.8,0.7,3.9c0.4,1,1,1.9,1.8,2.5c0.7,0.6,1.6,1.1,2.6,1.4
			c1,0.3,2,0.4,3.2,0.4c1.3,0,2.5-0.2,3.7-0.5c1.2-0.3,2.3-0.7,3.2-1.1c0.6-0.3,1.1-0.2,1.3,0.4l1.6,3.4c0.3,0.6,0.1,1.1-0.4,1.4
			c-1.5,0.9-3.1,1.5-4.9,1.9s-3.5,0.5-5.1,0.5c-4.8,0-8.4-1.3-10.9-3.8c-2.5-2.6-3.8-6.6-3.8-12.1c0-2.6,0.4-4.9,1.1-6.9
			c0.7-2,1.7-3.7,2.9-5.1c1.2-1.4,2.7-2.5,4.4-3.2C407.8,551.2,409.6,550.8,411.7,550.8z M411.8,556.6c-1.1,0-2,0.2-2.8,0.6
			c-0.8,0.4-1.5,1-2.1,1.7c-0.6,0.7-1.1,1.5-1.4,2.4c-0.4,0.9-0.6,1.8-0.6,2.8h13.6c0-1.1-0.1-2-0.3-2.9c-0.2-0.9-0.5-1.7-1-2.4
			c-0.5-0.7-1.2-1.2-2-1.6C414.2,556.7,413.1,556.6,411.8,556.6z"/>
		<path class="st0" d="M444.3,582.3c-0.2,0.1-0.5,0.2-0.9,0.2h-4.5c-0.4,0-0.7-0.1-0.9-0.2s-0.3-0.4-0.3-0.8v-25.3
			c0-1.6,0.3-2.7,0.8-3.5c0.5-0.8,1.6-1.3,3.3-1.5c0.7-0.1,1.4-0.1,2.2-0.2s1.5-0.1,2.2-0.1c2.4,0,4.7,0.3,6.9,0.9
			c2.2,0.6,4.2,1.7,6,3.2c0.3,0.2,0.4,0.4,0.4,0.6s-0.1,0.4-0.2,0.6l-2.7,3.9c-0.2,0.3-0.4,0.5-0.6,0.4c-0.2,0-0.4-0.2-0.7-0.4
			c-1.1-1-2.4-1.7-3.7-2.3c-1.3-0.5-2.8-0.8-4.3-0.8c-0.5,0-0.9,0-1.4,0.1c-0.5,0-0.9,0.1-1.4,0.2v24.2
			C444.6,581.9,444.5,582.2,444.3,582.3z"/>
		<path class="st0" d="M487.7,581.7c0,0.2-0.2,0.3-0.6,0.5c-1.3,0.4-2.7,0.7-4,0.8c-1.3,0.1-2.4,0.1-3.1,0.1c-3.2,0-5.5-0.7-6.8-2.1
			c-1.3-1.4-2-3.5-2-6.3v-18H467c-0.4,0-0.7-0.1-0.8-0.3c-0.1-0.2-0.1-0.4-0.1-0.7v-2.4c0-0.4,0.1-0.6,0.2-0.8
			c0.1-0.2,0.4-0.3,0.8-0.4l4.5-1l0.8-5.6c0.1-0.4,0.2-0.7,0.4-0.9c0.2-0.2,0.5-0.3,0.9-0.5l3.4-1.2c0.3-0.1,0.6,0,0.8,0.1
			c0.2,0.1,0.3,0.4,0.3,0.9v7.5h6.3c0.4,0,0.7,0.1,0.8,0.3c0.1,0.2,0.1,0.4,0.1,0.7v3.3c0,0.4,0,0.6-0.1,0.8
			c-0.1,0.2-0.4,0.2-0.8,0.2H478v17.1c0,1.3,0.3,2.1,0.9,2.6s1.5,0.7,2.7,0.7c0.2,0,0.5,0,0.9,0c0.4,0,0.8,0,1.2-0.1
			c0.4,0,0.8-0.1,1.2-0.1c0.4-0.1,0.8-0.1,1-0.1c0.4-0.1,0.6-0.1,0.8,0c0.1,0.1,0.2,0.3,0.2,0.6l0.6,3.8
			C487.7,581.4,487.7,581.6,487.7,581.7z"/>
		<path class="st0" d="M505.2,582.3c-0.2,0.1-0.5,0.2-0.9,0.2h-4.5c-0.4,0-0.7-0.1-0.9-0.2s-0.3-0.4-0.3-0.8v-25.3
			c0-1.6,0.3-2.7,0.8-3.5c0.5-0.8,1.6-1.3,3.3-1.5c0.7-0.1,1.4-0.1,2.2-0.2c0.7-0.1,1.5-0.1,2.2-0.1c2.4,0,4.7,0.3,6.9,0.9
			c2.2,0.6,4.2,1.7,6,3.2c0.3,0.2,0.4,0.4,0.4,0.6c0,0.2-0.1,0.4-0.2,0.6l-2.7,3.9c-0.2,0.3-0.4,0.5-0.6,0.4c-0.2,0-0.4-0.2-0.7-0.4
			c-1.1-1-2.4-1.7-3.7-2.3c-1.3-0.5-2.8-0.8-4.3-0.8c-0.5,0-0.9,0-1.4,0.1c-0.5,0-0.9,0.1-1.4,0.2v24.2
			C505.4,581.9,505.3,582.2,505.2,582.3z"/>
		<path class="st0" d="M555,579.1c0,0.9-0.4,1.6-1.1,1.9c-0.9,0.4-1.8,0.7-2.8,1c-1,0.3-2,0.5-3.1,0.6s-2.1,0.3-3.2,0.3
			c-1,0.1-2,0.1-3,0.1c-2.6,0-4.7-0.3-6.5-0.8c-1.7-0.5-3.1-1.2-4.1-2.1c-1-0.9-1.7-1.9-2.1-3.1c-0.4-1.2-0.6-2.5-0.6-3.8
			c0-1.4,0.2-2.7,0.7-4c0.5-1.3,1.2-2.4,2.2-3.4c1-1,2.3-1.7,4-2.3c1.6-0.6,3.6-0.9,6-0.9h6.6v-1c0-0.7-0.1-1.4-0.2-2.1
			c-0.2-0.6-0.5-1.2-0.9-1.6c-0.5-0.5-1.1-0.8-1.9-1.1c-0.8-0.3-1.8-0.4-3.1-0.4c-1.3,0-2.8,0.1-4.4,0.4c-1.6,0.2-2.8,0.5-3.8,0.8
			c-0.4,0.1-0.7,0.1-0.9,0.1c-0.2-0.1-0.3-0.3-0.4-0.6l-0.8-3.4c-0.2-0.6,0-1,0.5-1.2c1.7-0.6,3.5-1.1,5.4-1.3
			c2-0.3,3.8-0.4,5.5-0.4c4.1,0,7.1,0.9,9,2.7c1.9,1.8,2.9,4.4,2.9,7.9V579.1z M548.1,568h-5.7c-0.7,0-1.4,0-2.2,0.1
			c-0.8,0.1-1.5,0.3-2.2,0.6s-1.3,0.9-1.7,1.5c-0.5,0.7-0.7,1.6-0.7,2.8c0,1.7,0.6,2.9,1.7,3.5c1.1,0.7,2.7,1,4.5,1
			c0.3,0,0.7,0,1.1,0c0.5,0,1-0.1,1.6-0.1c0.5-0.1,1.1-0.2,1.7-0.3c0.6-0.1,1.2-0.3,1.7-0.5V568z"/>
		<path class="st0" d="M585.6,579.9c-0.4,1.1-0.8,1.9-1.3,2.3c-0.5,0.4-1.2,0.6-2.3,0.6h-3.3c-0.9,0-1.6-0.2-2.1-0.5s-1-1.1-1.4-2.4
			l-9.5-27.5c-0.2-0.5,0.1-0.8,0.6-0.8h5.3c0.4,0,0.7,0,0.9,0.1c0.2,0.1,0.3,0.3,0.4,0.6l4.5,14l2.9,10h0.4l2.9-10l4.4-14
			c0.1-0.3,0.2-0.5,0.3-0.6c0.1-0.1,0.4-0.2,0.9-0.2h5.2c0.6,0,0.8,0.3,0.6,0.8L585.6,579.9z"/>
		<path class="st0" d="M630.6,579.1c0,0.9-0.4,1.6-1.1,1.9c-0.9,0.4-1.8,0.7-2.8,1c-1,0.3-2,0.5-3.1,0.6s-2.1,0.3-3.2,0.3
			c-1,0.1-2,0.1-3,0.1c-2.6,0-4.7-0.3-6.5-0.8c-1.7-0.5-3.1-1.2-4.1-2.1c-1-0.9-1.7-1.9-2.1-3.1c-0.4-1.2-0.6-2.5-0.6-3.8
			c0-1.4,0.2-2.7,0.7-4c0.5-1.3,1.2-2.4,2.2-3.4c1-1,2.3-1.7,4-2.3c1.6-0.6,3.6-0.9,6-0.9h6.6v-1c0-0.7-0.1-1.4-0.2-2.1
			c-0.2-0.6-0.5-1.2-0.9-1.6c-0.5-0.5-1.1-0.8-1.9-1.1c-0.8-0.3-1.8-0.4-3.1-0.4c-1.3,0-2.8,0.1-4.4,0.4c-1.6,0.2-2.8,0.5-3.8,0.8
			c-0.4,0.1-0.7,0.1-0.9,0.1c-0.2-0.1-0.3-0.3-0.4-0.6l-0.8-3.4c-0.2-0.6,0-1,0.5-1.2c1.7-0.6,3.5-1.1,5.4-1.3
			c2-0.3,3.8-0.4,5.5-0.4c4.1,0,7.1,0.9,9,2.7c1.9,1.8,2.9,4.4,2.9,7.9V579.1z M623.6,568H618c-0.7,0-1.4,0-2.2,0.1
			c-0.8,0.1-1.5,0.3-2.2,0.6s-1.3,0.9-1.7,1.5c-0.5,0.7-0.7,1.6-0.7,2.8c0,1.7,0.6,2.9,1.7,3.5c1.1,0.7,2.7,1,4.5,1
			c0.3,0,0.7,0,1.1,0c0.5,0,1-0.1,1.6-0.1c0.5-0.1,1.1-0.2,1.7-0.3c0.6-0.1,1.2-0.3,1.7-0.5V568z"/>
		<path class="st0" d="M642.9,567.5c0-2.2,0.3-4.3,0.8-6.3c0.5-2,1.4-3.8,2.6-5.3s2.7-2.7,4.5-3.6c1.8-0.9,4-1.4,6.5-1.4
			c0.8,0,1.7,0,2.8,0.1c1.1,0.1,2.2,0.3,3.5,0.6v-11.1c0-0.4,0.1-0.7,0.3-0.8c0.2-0.1,0.5-0.2,0.9-0.2h4.6c0.4,0,0.7,0.1,0.8,0.2
			c0.2,0.1,0.3,0.4,0.3,0.8v39.1c0,0.7-0.6,1.4-1.7,1.8c-1.1,0.5-2.5,0.8-4,1.1c-1.5,0.3-3,0.4-4.5,0.5c-1.5,0.1-2.6,0.1-3.2,0.1
			c-2.6,0-4.8-0.4-6.6-1.1c-1.8-0.7-3.3-1.8-4.4-3.2c-1.1-1.4-1.9-3-2.4-4.9C643.2,571.9,642.9,569.8,642.9,567.5z M650.1,567.5
			c0,3.6,0.7,6.2,2.1,7.6c1.4,1.5,3.4,2.2,5.9,2.2c0.8,0,1.8-0.1,2.9-0.2c1.1-0.2,2-0.4,2.7-0.6v-18.9c-1.2-0.3-2.3-0.5-3.2-0.6
			c-0.9-0.1-1.7-0.1-2.5-0.1c-2.3,0-4.2,0.8-5.7,2.5C650.8,560.9,650.1,563.6,650.1,567.5z"/>
		<path class="st0" d="M711.6,566.9c0,5.2-1.2,9.2-3.6,12c-2.4,2.8-6,4.2-10.8,4.2c-4.8,0-8.3-1.4-10.6-4.1s-3.5-6.7-3.5-12
			c0-2.6,0.4-4.9,1.1-6.9c0.7-2,1.7-3.7,2.9-5.1c1.3-1.4,2.8-2.4,4.5-3.2c1.7-0.7,3.7-1.1,5.8-1.1c4.7,0,8.2,1.4,10.6,4.3
			C710.4,558,711.6,561.9,711.6,566.9z M704.6,567c0-1.4-0.1-2.8-0.3-4c-0.2-1.3-0.6-2.4-1.1-3.3c-0.5-1-1.3-1.7-2.2-2.3
			c-0.9-0.6-2.1-0.8-3.5-0.8c-1.3,0-2.4,0.3-3.3,0.8c-0.9,0.5-1.7,1.3-2.4,2.2c-0.6,0.9-1.1,2-1.4,3.3s-0.4,2.6-0.4,4.1
			c0,3.3,0.5,5.9,1.6,7.7c1.1,1.9,2.9,2.8,5.7,2.8c1.4,0,2.5-0.3,3.5-0.9c0.9-0.6,1.7-1.3,2.3-2.3c0.6-0.9,1-2,1.2-3.3
			C704.4,569.7,704.6,568.4,704.6,567z"/>
		<path class="st0" d="M746.3,573.8c0,1.6-0.3,2.9-0.9,4.1c-0.6,1.2-1.4,2.2-2.5,2.9s-2.3,1.3-3.7,1.7c-1.4,0.4-3,0.6-4.6,0.6
			c-0.9,0-2,0-3-0.1c-1.1-0.1-2.1-0.2-3.2-0.4c-1.1-0.2-2.1-0.5-3.1-0.8c-1-0.3-1.9-0.7-2.7-1.2c-0.6-0.3-0.7-0.8-0.4-1.4l1.4-3.3
			c0.2-0.4,0.4-0.6,0.6-0.7c0.2-0.1,0.5,0,0.9,0.1c1.4,0.7,3,1.2,4.7,1.6c1.7,0.4,3.3,0.6,4.6,0.6c1.6,0,2.9-0.3,3.7-1
			s1.2-1.5,1.2-2.5c0-1.1-0.5-2-1.6-2.7c-1.1-0.7-2.7-1.4-4.8-2.2c-1.6-0.6-3-1.2-4.2-1.8s-2.2-1.2-3-2c-0.8-0.7-1.4-1.5-1.8-2.4
			c-0.4-0.9-0.6-1.9-0.6-3.1c0-1.3,0.2-2.5,0.7-3.6c0.5-1.1,1.2-2,2.1-2.8c0.9-0.8,2.1-1.4,3.5-1.9c1.4-0.5,3-0.7,4.8-0.7
			c1.7,0,3.3,0.1,4.9,0.4c1.7,0.3,3.2,0.8,4.8,1.4c0.3,0.2,0.5,0.4,0.6,0.6c0.1,0.2,0,0.5,0,0.8l-1.4,3.4c-0.1,0.3-0.3,0.5-0.4,0.5
			c-0.2,0-0.4,0-0.7-0.1c-1.5-0.5-2.9-0.9-4-1.1c-1.2-0.2-2.4-0.3-3.7-0.3c-1.5,0-2.5,0.3-3.2,0.9c-0.7,0.6-1,1.3-1,2
			c0,0.6,0.1,1,0.3,1.4c0.2,0.4,0.6,0.8,1,1.1s1.1,0.7,1.9,1c0.8,0.4,1.7,0.7,2.8,1.1c1.3,0.5,2.5,1,3.7,1.5
			c1.2,0.5,2.3,1.2,3.2,1.9c0.9,0.7,1.7,1.6,2.2,2.7C746.1,571.1,746.3,572.4,746.3,573.8z"/>
	</g>
	<g>
		<path class="st1" d="M178.1,459.3c-9.8,0-19.7,0.1-29.5-0.1c-4.1-0.1-5.6,1.4-5.4,5.6c0.3,5.1,0.3,10.3,0,15.5
			c-0.2,4.2,1.3,5.5,5.4,5.5c17.2-0.2,34.3,0.1,51.5-0.2c5-0.1,6.6,1.3,6.5,6.4c-0.3,14.1-0.1,14.1-14.1,14.1c-13,0-26,0.1-39,0
			c-15.9-0.1-30.4-14.5-30.5-30.4c-0.1-17.3-0.1-34.6,0-52c0.1-16.5,14.6-30.8,31.1-30.9c16.8-0.1,33.6-0.1,50.5,0
			c17.4,0.1,31.6,14.7,31.7,32.6c0.1,19.1-13.1,33.5-31.2,33.8c-9,0.2-18,0-27,0C178.1,459.2,178.1,459.3,178.1,459.3z M176,438.8
			c9.1,0,18.3,0,27.4,0c7.6-0.1,12.4-4.9,12.5-12.5c0.1-7.4-4.8-13.1-12-13.2c-16.3-0.2-32.6-0.2-48.9,0
			c-6.7,0.1-11.4,5.1-11.7,11.9c-0.1,3.2,0.1,6.3-0.1,9.5c-0.2,3.2,1,4.4,4.3,4.4C157.1,438.7,166.5,438.8,176,438.8z"/>
		<path class="st1" d="M739.5,449.1c0,8.3,0.1,16.6,0,25c-0.2,16.5-12.8,30.2-29.2,31c-15.6,0.7-31.3,0.8-46.9,0.1
			c-18-0.7-30.3-14.3-30.4-32.4c-0.1-16-0.1-32,0-47.9c0.1-18.3,14-32,32.4-32c14,0,28-0.1,41.9,0c18,0.1,31.9,13.9,32.1,31.9
			C739.5,432.8,739.4,441,739.5,449.1C739.5,449.1,739.5,449.1,739.5,449.1z M653.3,449c0,8-0.1,16,0,24c0.1,7.2,4.6,11.8,11.9,11.8
			c14,0.1,28,0.1,42,0c7.2,0,11.9-4.7,11.9-11.9c0.1-15.8,0.1-31.6,0-47.5c0-7.3-4.8-12.2-12.2-12.3c-13.8-0.2-27.6-0.1-41.5,0
			c-7.4,0.1-12.1,4.9-12.1,12.3C653.2,433.3,653.3,441.2,653.3,449z"/>
		<path class="st1" d="M753.8,448.7c0-16.5,0.2-33-0.1-49.5c-0.1-4.8,1.1-6.6,6.3-6.6c22.8,0.3,45.7,0.1,68.5,0.1
			c17.6,0,31.8,14.1,31.9,31.7c0.1,25.2-0.1,50.3,0.1,75.5c0,4.1-1.3,5.4-5.4,5.4c-14.9-0.1-14.9,0.1-14.9-14.9
			c0-21.2,0-42.3,0-63.5c0-9.3-4.5-13.8-13.8-13.8c-15.7-0.1-31.3,0.1-47-0.1c-3.9,0-5.2,1.2-5.1,5.2c0.1,27-0.1,54,0.1,81
			c0,4.8-1.5,6.7-6.3,6.1c-2.8-0.3-5.7-0.3-8.5,0c-4.3,0.4-5.8-1.2-5.8-5.6C754,482.7,753.9,465.7,753.8,448.7
			C753.8,448.7,753.8,448.7,753.8,448.7z"/>
		<path class="st1" d="M525.7,462c0,12.8-0.1,25.7,0.1,38.5c0.1,4.4-1.4,5.7-5.7,5.6c-14.4-0.2-14.4,0-14.4-14.4
			c0-8.8-0.1-17.7,0-26.5c0-3.6-0.9-5.4-5.1-5.3c-13.3,0.2-26.7,0-40,0.1c-7.4,0.1-12.2,4.9-12.3,12.2c-0.1,9.8-0.1,19.7,0,29.5
			c0,3.2-1,4.5-4.3,4.4c-4.2-0.2-8.3-0.2-12.5,0c-2.6,0.1-3.6-0.9-3.6-3.5c0.1-11.5-0.3-23,0.2-34.5c0.7-14.8,15.2-28.2,30-28.3
			c13.8-0.1,27.7-0.2,41.5,0c4.7,0.1,6.2-1.8,6.1-6.1c-0.2-5-0.2-10,0-15c0.1-4-1.4-5.7-5.6-5.6c-12.5,0.2-25,0-37.5,0.1
			c-3.7,0.1-5.1-1.1-4.9-4.8c0.3-4-0.2-8,0.2-12c0.1-1.3,1.9-3.5,2.9-3.5c13.1,0,26.4-0.8,39.4,0.9c14.7,1.9,25,14.9,25.3,29.8
			C525.9,436.4,525.6,449.2,525.7,462C525.7,462,525.7,462,525.7,462z"/>
		<path class="st1" d="M563.3,449.1c0,7.3-0.1,14.7,0,22c0.1,9.4,4.4,13.8,13.7,13.8c12.7,0,25.3,0.1,38,0c3.8-0.1,5.6,0.9,5.3,5
			c-0.3,3.6-0.2,7.3,0,11c0.2,3.5-1.3,4.7-4.7,4.7c-14-0.1-28,0.2-42-0.2c-16.9-0.5-30.2-14-30.5-30.9c-0.3-17-0.3-34,0-51
			c0.3-16.6,14.8-30.6,31.4-30.6c13.5-0.1,27,0.2,40.5-0.1c4.3-0.1,5.6,1.5,5.3,5.5c-0.2,3.3-0.3,6.7,0,10c0.4,4.1-1.4,5.1-5.2,5
			c-12.7-0.2-25.3-0.1-38,0c-9,0.1-13.7,4.9-13.8,14C563.3,434.4,563.3,441.7,563.3,449.1z"/>
		<path class="st1" d="M66.8,506c-5.8,0-11.3,0.2-16.8-0.1c-1-0.1-2.7-1.8-2.9-2.9c-0.4-3.1-0.2-6.3-0.2-9.5c0-24.5,0-49,0-73.4
			c0-7,0-7-7.3-7c-11.7,0-23.3-0.1-35,0.1c-3.5,0.1-4.6-1.1-4.6-4.6c-0.3-15.9-0.4-15.9,15.4-15.8c30.6,0,61.3,0.1,91.9-0.1
			c4.8,0,6.2,1.3,6.2,6.2c-0.2,14.2,0,14.2-14.4,14.3c-8.7,0-17.3,0.2-26-0.1c-4.5-0.2-6,1.1-6,5.8c0.2,26.8,0.1,53.6,0.1,80.4
			C67.2,501.4,67,503.5,66.8,506z"/>
		<path class="st1" d="M300.7,392.7c17.2,0,34.3,0.1,51.5-0.1c3.8,0,5.6,0.9,5.2,5c-0.3,3.5-0.3,7,0,10.5c0.4,4.1-1.4,5-5.2,5
			c-11.8-0.2-23.6,0.1-35.5-0.2c-4.3-0.1-6,1.2-6,5.5c0.2,26.8,0.2,53.6,0.4,80.4c0.1,7.2,0.3,7.2-6.9,7.2c-13.4,0-13.4,0-13.4-13.2
			c0-24.5-0.1-49,0.1-73.4c0-5-1.5-6.6-6.5-6.5c-11.8,0.3-23.6-0.1-35.5,0.2c-4.1,0.1-5.3-1.2-5-5.1c0.5-4.9-1.2-11.4,1.4-14.3
			c2.2-2.5,9.1-1,13.8-1C273.1,392.7,286.9,392.7,300.7,392.7z"/>
		<path class="st1" d="M389.3,463.3c0,12.5-0.1,25,0.1,37.5c0.1,3.8-1.1,5-4.9,4.7c-3.6-0.3-7.3-0.2-11-0.1
			c-3.5,0.2-4.6-1.4-4.6-4.8c0.1-25.8-0.1-51.7,0.1-77.5c0.1-15.9,14.2-30.1,30.1-30.4c14-0.3,28,0,42-0.1c3.1,0,4.7,0.8,4.6,4.2
			c-0.1,4-0.1,8,0,12c0.1,3.3-1.3,4.3-4.5,4.2c-12.7-0.1-25.3-0.1-38,0c-9.3,0-13.8,4.4-13.9,13.7
			C389.2,439,389.3,451.2,389.3,463.3C389.3,463.3,389.3,463.3,389.3,463.3z"/>
	</g>
</g>
</svg>
