<?xml version="1.0" encoding="utf-8"?>
<!-- Generator: Adobe Illustrator 16.0.0, SVG Export Plug-In . SVG Version: 6.00 Build 0)  -->
<!DOCTYPE svg PUBLIC "-//W3C//DTD SVG 1.1//EN" "http://www.w3.org/Graphics/SVG/1.1/DTD/svg11.dtd">
<svg version="1.1" id="Layer_1" xmlns="http://www.w3.org/2000/svg" xmlns:xlink="http://www.w3.org/1999/xlink" x="0px" y="0px"
	 width="220.488px" height="244.488px" viewBox="0 0 220.488 244.488" enable-background="new 0 0 220.488 244.488"
	 xml:space="preserve">
<g id="Layer_1_1_">
</g>
<g id="Layer_2">
</g>
<g id="Layer_3">
	<g>
		<path fill="#FFFFFF" d="M91.438,183.602c0-0.754,0-1.509,0-2.322c0.281,0,0.551,0,0.854,0c0-0.59,0-1.113,0-1.715
			c0.274,0,0.521,0,0.801,0c0-0.551,0-1.031,0-1.57c0.241,0,0.445,0,0.666,0c0-15.848,0-31.625,0-47.469c-0.219,0-0.42,0-0.658,0
			c0-0.53,0-0.993,0-1.538c-0.272,0-0.52,0-0.791,0c0-0.593,0-1.098,0-1.678c-0.295,0-0.562,0-0.852,0c0-0.797,0-1.521,0-2.331
			c0.104,0,0.213,0,0.324,0c4.663,0,9.334-0.015,13.995,0.007c1.787,0.006,3.562,0.215,5.293,1.106
			c1.525,0.783,2.882,2.183,3.962,4.46c1.331,2.805,1.858,6.159,1.781,9.925c-0.17,8.093-3.164,12.57-6.183,14.115
			c-1.271,0.654-2.566,0.9-3.875,0.988c-0.113,0.006-0.223,0-0.399,0c0.096,0.262,0.155,0.441,0.223,0.611
			c2.733,6.936,5.473,13.873,8.199,20.817c0.247,0.625,0.467,1.234,0.981,0.898c0,0.578,0,1.078,0,1.633c0.292,0,0.537,0,0.816,0
			c0,0.582,0,1.104,0,1.693c0.299,0,0.567,0,0.893,0c-0.018,0.832-0.033,1.6-0.054,2.367c-2.932,0-5.856,0-8.784,0
			c-0.027-0.759-0.054-1.519-0.088-2.367c0.34,0,0.612,0,0.916,0c0-0.604,0-1.125,0-1.713c0.274,0,0.524,0,0.766,0
			c0.03-0.604,0.058-1.146,0.088-1.83c0.032,0.082,0.008,0.012-0.02-0.053c-2.85-7.232-5.695-14.47-8.551-21.691
			c-0.076-0.188-0.24-0.34-0.361-0.346c-0.812-0.027-1.621-0.015-2.436-0.015c-0.383,0-0.771,0-1.166,0c0,7.49,0,14.92,0,22.357
			c0.227,0.02,0.432,0.037,0.67,0.059c0,0.529,0,1.006,0,1.562c0.28,0,0.524,0,0.805,0c0,0.592,0,1.121,0,1.713
			c0.301,0,0.567,0,0.845,0c0,0.815,0,1.57,0,2.324C97.213,183.602,94.326,183.602,91.438,183.602z M97.774,151.621
			c0.098,0.008,0.157,0.021,0.223,0.021c2.223-0.004,4.442,0.043,6.662-0.029c1.02-0.037,2.05-0.141,3.051-0.484
			c2.08-0.715,3.583-2.92,4.24-6.968c0.309-1.878,0.325-3.819,0.217-5.772c-0.246-4.163-1.672-7.41-3.773-8.294
			c-0.852-0.365-1.745-0.512-2.623-0.537c-2.569-0.066-5.141-0.022-7.709-0.022c-0.092,0-0.182,0.021-0.286,0.034
			C97.774,136.923,97.774,144.244,97.774,151.621z"/>
		<path fill="#FFFFFF" d="M20.645,125.219c0.082-0.022,0.161-0.076,0.244-0.076c2.781-0.002,5.562-0.002,8.345-0.002
			c0.051,0,0.104,0.016,0.178,0.024c0,0.742,0,1.467,0,2.248c-0.264,0-0.532,0-0.841,0c0,0.592,0,1.138,0,1.727
			c-0.281,0-0.517,0-0.797,0c0,0.526,0,1.006,0,1.54c-0.244,0.021-0.446,0.046-0.668,0.065c0,6.751,0,13.479,0,20.25
			c5.203,0,10.4,0,15.616,0c0-6.738,0-13.465,0-20.244c-0.215-0.025-0.417-0.046-0.642-0.068c0-0.497,0-0.96,0-1.509
			c-0.281,0-0.536,0-0.82,0c0-0.605,0-1.131,0-1.712c-0.293,0-0.568,0-0.858,0c0-0.781,0-1.508,0-2.276c2.905,0,5.81,0,8.734,0
			c0,0.728,0,1.449,0,2.233c-0.267,0-0.536,0-0.833,0c0,0.58,0,1.11,0,1.708c-0.279,0-0.523,0-0.805,0c0,0.55,0,1.026,0,1.553
			c-0.244,0.021-0.451,0.046-0.672,0.065c0,15.729,0,31.431,0,47.191c0.206,0.018,0.412,0.043,0.651,0.062c0,0.486,0,0.969,0,1.525
			c0.279,0,0.521,0,0.803,0c0,0.596,0,1.115,0,1.705c0.303,0,0.568,0,0.871,0c0,0.832,0,1.604,0,2.371c-2.907,0-5.814,0-8.723,0
			c-0.023-0.761-0.048-1.527-0.072-2.359c0.331,0,0.6,0,0.906,0c0-0.598,0-1.133,0-1.73c0.289,0,0.536,0,0.818,0
			c0-0.543,0-1.024,0-1.551c0.23,0,0.426,0,0.641,0c0-7.473,0-14.891,0-22.336c-5.217,0-10.413,0-15.617,0
			c0,7.453,0,14.877,0,22.369c0.226,0,0.429,0,0.668,0c0,0.549,0,1.031,0,1.557c0.277,0,0.515,0,0.793,0c0,0.595,0,1.13,0,1.729
			c0.312,0,0.581,0,0.864,0c0,0.813,0,1.568,0,2.322c-2.928,0-5.854,0-8.786,0c0-0.783,0-1.558,0-2.334c0.291,0,0.582,0,0.898,0
			c0-0.629,0-1.156,0-1.736c0.274,0,0.521,0,0.805,0c0-0.545,0-1.023,0-1.58c0.238,0,0.443,0,0.646,0c0-15.772,0-31.475,0-47.209
			c-0.228-0.017-0.429-0.039-0.667-0.053c0-0.551,0-1.028,0-1.566c-0.288,0-0.531,0-0.806,0c0-0.586,0-1.106,0-1.687
			c-0.31,0-0.594,0-0.876,0C20.645,126.698,20.645,125.962,20.645,125.219z"/>
		<path fill="#FFFFFF" d="M55.979,183.602c-0.023-0.746-0.051-1.494-0.074-2.312c0.343,0,0.642,0,0.986,0c0-0.604,0-1.145,0-1.729
			c0.278,0,0.521,0,0.79,0c0-0.529,0-1.009,0-1.593c0.532,0.263,0.548-0.514,0.657-1.094c2.908-15.278,5.812-30.558,8.719-45.838
			c0.021-0.113,0.041-0.231,0.066-0.376c-0.424-0.33-0.109-1.089-0.275-1.672c-0.225,0-0.471,0-0.752,0c0-0.595,0-1.113,0-1.7
			c-0.3,0-0.567,0-0.859,0c0-0.787,0-1.512,0-2.273c3.39,0,6.761,0,10.159,0c0,0.729,0,1.451,0,2.256c-0.273,0-0.544,0-0.849,0
			c0,0.595,0,1.113,0,1.704c-0.283,0-0.531,0-0.8,0c0,0.541,0,1.006,0,1.496c-0.097,0.035-0.176,0.063-0.271,0.103
			c0.014,0.141,0.023,0.279,0.046,0.404c0.857,4.506,1.71,9.013,2.568,13.521c2.085,10.965,4.171,21.93,6.249,32.903
			c0.103,0.543,0.264,0.664,0.547,0.551c0,0.553,0,1.037,0,1.586c0.277,0,0.525,0,0.808,0c0,0.594,0,1.117,0,1.707
			c0.33,0,0.629,0,0.989,0c-0.022,0.838-0.049,1.601-0.071,2.359c-2.781,0-5.562,0-8.346,0c-0.027-0.758-0.055-1.519-0.085-2.359
			c0.357,0,0.658,0,0.988,0c0-0.586,0-1.104,0-1.695c0.28,0,0.528,0,0.812,0c0-0.561,0-1.053,0-1.543
			c0.168-0.022,0.292-0.043,0.438-0.065c-0.019-0.144-0.029-0.262-0.051-0.371c-0.853-4.662-1.705-9.32-2.55-13.99
			c-0.071-0.395-0.189-0.408-0.357-0.408c-3.444,0.002-6.893,0.009-10.335-0.004c-0.222-0.008-0.301,0.146-0.373,0.535
			c-0.815,4.49-1.641,8.978-2.461,13.465c-0.049,0.242-0.088,0.486-0.142,0.771c0.17,0.024,0.306,0.047,0.467,0.078
			c0,0.506,0,0.989,0,1.532c0.276,0,0.521,0,0.815,0c0,0.599,0,1.14,0,1.722c0.339,0,0.628,0,0.974,0
			c-0.027,0.815-0.059,1.576-0.084,2.334C61.541,183.602,58.759,183.602,55.979,183.602z M74.922,159.002
			c-1.535-8.375-3.068-16.701-4.625-25.164c-1.56,8.459-3.09,16.789-4.631,25.164C68.764,159.002,71.826,159.002,74.922,159.002z"/>
		<path fill="#FFFFFF" d="M170.445,183.602c0-0.754,0-1.509,0-2.33c0.309,0,0.609,0,0.936,0c0-0.586,0-1.115,0-1.701
			c0.274,0,0.521,0,0.806,0c0-0.537,0-1.021,0-1.482c0.469-0.25,0.469-0.25,0.634-1.108c2.903-15.283,5.811-30.567,8.719-45.848
			c0.03-0.171,0.062-0.34,0.088-0.514c-0.474-0.289-0.103-1.077-0.303-1.626c-0.199,0-0.446,0-0.728,0c0-0.606,0-1.129,0-1.705
			c-0.302,0-0.561,0-0.849,0c0-0.773,0-1.497,0-2.27c3.37,0,6.748,0,10.144,0c0,0.721,0,1.446,0,2.256c-0.272,0-0.547,0-0.852,0
			c0,0.59,0,1.091,0,1.707c-0.203,0-0.392,0.016-0.57-0.006c-0.178-0.021-0.25,0.122-0.236,0.465
			c0.011,0.327,0.001,0.652,0.001,1.017c-0.094,0.046-0.181,0.083-0.283,0.136c0.411,2.187,0.815,4.327,1.226,6.471
			c2.54,13.367,5.084,26.729,7.618,40.097c0.104,0.539,0.188,1,0.585,0.803c0,0.547,0,1.025,0,1.57c0.282,0,0.525,0,0.806,0
			c0,0.58,0,1.107,0,1.695c0.325,0,0.625,0,0.96,0c0,0.836,0,1.606,0,2.375c-2.803,0-5.604,0-8.407,0c0-0.769,0-1.531,0-2.367
			c0.318,0,0.616,0,0.947,0c0-0.596,0-1.119,0-1.709c0.274,0,0.523,0,0.805,0c0-0.558,0-1.031,0-1.512
			c0.16-0.033,0.295-0.062,0.433-0.091c-0.018-0.133-0.027-0.211-0.037-0.289c-0.855-4.676-1.719-9.354-2.566-14.03
			c-0.077-0.424-0.202-0.437-0.38-0.437c-3.435,0.002-6.861,0.008-10.296-0.004c-0.229-0.008-0.323,0.152-0.397,0.564
			c-0.831,4.563-1.666,9.121-2.5,13.688c-0.029,0.162-0.05,0.332-0.078,0.521c0.156,0.026,0.285,0.057,0.454,0.082
			c0,0.526,0,1.01,0,1.551c0.281,0,0.53,0,0.808,0c0,0.586,0,1.115,0,1.707c0.327,0,0.626,0,0.927,0c0,0.818,0,1.574,0,2.324
			C176.051,183.602,173.251,183.602,170.445,183.602z M184.826,134.029c-0.023,0-0.046,0-0.07,0
			c-1.53,8.311-3.057,16.624-4.594,24.959c3.11,0,6.168,0,9.26,0C187.883,150.636,186.355,142.333,184.826,134.029z"/>
		<path fill="#FFFFFF" d="M124.242,183.602c0-0.75,0-1.509,0-2.334c0.269,0,0.541,0,0.841,0c0-0.597,0-1.121,0-1.707
			c0.28,0,0.525,0,0.808,0c0-0.552,0-1.029,0-1.562c0.239,0,0.445,0,0.68,0c0-15.834,0-31.606,0-47.461c-0.196,0-0.401,0-0.606,0
			c-0.031-0.553,0.024-1.181-0.111-1.455c-0.123-0.246-0.451-0.11-0.724-0.145c0-0.536,0-1.06,0-1.642c-0.3,0-0.57,0-0.86,0
			c0-0.786,0-1.517,0-2.286c0.086-0.013,0.177-0.031,0.267-0.031c3.762,0,7.521-0.024,11.28,0.016
			c1.82,0.018,3.648,0.106,5.437,0.854c2.546,1.056,4.605,3.574,5.936,8.016c0.902,3.033,1.104,6.388,0.893,9.81
			c-0.398,6.351-2.217,10.694-5.164,13.293c-1.083,0.953-2.266,1.343-3.442,1.414c-2.765,0.177-5.537,0.207-8.305,0.293
			c-0.135,0.009-0.271,0.007-0.431,0.007c0,6.446,0,12.842,0,19.284c0.228,0,0.431,0,0.677,0c0,0.533,0,1.017,0,1.568
			c0.277,0,0.526,0,0.807,0c0,0.592,0,1.115,0,1.701c0.299,0,0.566,0,0.873,0c0,0.828,0,1.6,0,2.367
			C130.139,183.602,127.191,183.602,124.242,183.602z M130.729,154.061c0.056,0.024,0.099,0.057,0.133,0.057
			c2.468-0.086,4.932-0.039,7.39-0.301c2.395-0.252,4.067-2.502,4.996-7.691c0.382-2.141,0.434-4.381,0.267-6.615
			c-0.332-4.554-1.551-7.8-3.854-9.157c-0.824-0.487-1.727-0.626-2.59-0.68c-2.032-0.128-4.063-0.104-6.096-0.142
			c-0.078,0-0.159,0.029-0.246,0.047C130.729,137.763,130.729,145.909,130.729,154.061z"/>
		<path fill="#FFFFFF" d="M154.961,183.602c-0.027-0.746-0.056-1.494-0.082-2.322c0.317,0,0.596,0,0.897,0c0-0.609,0-1.135,0-1.715
			c0.271,0,0.521,0,0.802,0c0-0.539,0-1.023,0-1.556c0.25-0.026,0.467-0.049,0.7-0.067c0-15.791,0-31.557,0-47.395
			c-0.217,0-0.428,0-0.676,0c0-0.524,0-0.992,0-1.522c-0.29-0.028-0.546-0.052-0.815-0.083c0-0.547,0-1.052,0-1.646
			c-0.297,0-0.574,0-0.867,0c0-0.795,0-1.504,0-2.267c2.897,0,5.8,0,8.725,0c0,0.714,0,1.437,0,2.235c-0.274,0-0.541,0-0.844,0
			c0,0.587,0,1.111,0,1.702c-0.281,0-0.529,0-0.809,0c0,0.531,0,0.995,0,1.527c-0.237,0-0.452,0-0.69,0c0,15.854,0,31.629,0,47.459
			c0.216,0,0.418,0,0.659,0c0,0.531,0,1.012,0,1.572c0.29,0,0.545,0,0.826,0c0,0.604,0,1.131,0,1.717c0.3,0,0.566,0,0.896,0
			c-0.021,0.828-0.043,1.592-0.062,2.359C160.734,183.602,157.846,183.602,154.961,183.602z"/>
	</g>
	<rect x="16.709" y="191.676" fill="#FFFFFF" width="186.242" height="3.646"/>
	<g>
		<rect x="18.793" y="112.657" fill="#FFFFFF" width="182.201" height="3.816"/>
		<path fill="#FFFFFF" d="M96.492,88.962c0.358-1.317,1.392-3.515,4.274-3.846c0,0,2.491-2.172,4.898,0.399
			c0.021,0.025,0.045,0.05,0.068,0.073c0,0,3.596,1.688,2.604-3.85c0,0-0.969-3.271-0.215-4.046l-1.968,1.262l2.422-4.781
			l-3.633,2.229l3.144-4.802l-2.949,2.26l2.295-4.921l-4.309,2.519l1.619-2.928c-3.531,2.798-7.055,5.387-9.656,6.837
			c-7.77,4.307-0.73-1.515-0.73-1.515s2.273-1.971,5.039-4.903c-4.799,3.264-13.983,9.257-18.873,10.8
			c-6.811,2.158-0.225-1.968-0.225-1.968s1.944-1.292,4.485-3.454c-0.678,0.289-1.318,0.539-1.896,0.722
			c-6.812,2.156-0.225-1.967-0.225-1.967s7.516-5.015,12.305-11.752c7.471-15.094,13.792-24.593,15.209-26.665
			c0.929-1.96,1.973-4.021,2.959-5.692c0.541-1.284,1.229-2.442,1.996-3.471c-1.144-0.139-3.572-0.194-6.24,1.257
			c0,0,1.907-3.5,8.543-3.902c0,0-6.574-1.41-10.221,0.318c0,0,2.818-3.114,9.125-1.876c0,0-5.726-1.072-6.353-4.819
			c0,0,4.488,4.099,11.992,2.81c0,0,0.731-0.187,1.869-0.312c-1.384-1.042-2.659-2.551-1.219-1.447
			c1.098,0.841,2.117,1.188,2.838,1.337c2.768-0.062,6.544,0.496,8.848,3.54c0,0,5.74,0.499,2.703,5.205
			c0,0-0.022-0.842-0.495-1.442l-3.162,0.003c-0.148,0.081-0.313,0.181-0.478,0.28c-1.188,0.776-4.123,3.243-3.095,8.202
			c0,0,6.001,3.847,0.536,13.803c-5.966,10.858-14.685,19.903-14.685,27.747l-1.91-1.717l0.383,5.104l-2.352-2.42
			c0,0-0.72,9.427,6.664,8.019c0,0,5.234-2.651,5.562,0.365c0,0,5.783,0.813,1.707,3.523c0,0,0.812-2.592-3.714-0.931
			c0,0-1.064,0.521-3.35,0.375l75.188,16.374c0.333-3.041,0.512-6.128,0.512-9.257c0-46.638-37.812-84.442-84.441-84.442
			c-46.637,0-84.439,37.805-84.439,84.442c0,2.591,0.121,5.158,0.354,7.691L96.492,88.962z"/>
	</g>
</g>
</svg>
