<?xml version="1.0" encoding="utf-8"?>
<!-- Generator: Adobe Illustrator 19.0.0, SVG Export Plug-In . SVG Version: 6.00 Build 0)  -->
<svg version="1.1" id="Layer_1" xmlns="http://www.w3.org/2000/svg" xmlns:xlink="http://www.w3.org/1999/xlink" x="0px" y="0px"
	 viewBox="0 0 328.4 259.7" style="enable-background:new 0 0 328.4 259.7;" xml:space="preserve">
<style type="text/css">
	.st0{fill:#221D1F;}
	.st1{fill:#FFFFFF;}
</style>
<path class="st0" d="M278.7,146.3c-38.3,38.3-76.3,76.2-113.5,113.4c-37.9-37.1-76-74.5-114.4-112.1c1.3-1.8,2-3,2.9-4.1
	c11-13.4,22-26.8,33.2-40c1.4-1.6,4.1-2.8,6.2-2.8c47.8-0.2,95.7-0.1,143.5,0c1.9,0,4.5,0.7,5.6,2
	C254.6,117,266.7,131.7,278.7,146.3z M136.9,153.6c9.2,26.6,18.2,52.6,27.2,78.5c0.4-0.1,0.8-0.2,1.2-0.3
	c8.9-25.9,17.8-51.9,26.8-78.3C173.4,153.6,155.6,153.6,136.9,153.6z M254.2,152.6c-15.8,0-31.4-0.1-47.1,0.2c-1.2,0-3,2.1-3.6,3.6
	c-6.1,17.2-12.1,34.5-18.1,51.7c-2.3,6.7-4.6,13.4-7,20.1C203.7,203,228.8,178,254.2,152.6z M75.2,152.6
	c24.6,24.6,49.3,49.3,73.7,73.7c-0.2,0.6-0.1,0.4-0.1,0.3c-8-23.9-16.1-47.8-24.2-71.7c-0.4-1-2.1-2.2-3.2-2.2
	C105.7,152.5,90.1,152.6,75.2,152.6z M151.2,112.9c-15.7,0-31.1,0-46.5,0c8,7.8,15.8,15.5,23.4,23
	C135.4,128.6,143.1,120.9,151.2,112.9z M201,136.1c7.7-7.7,15.5-15.5,23.1-23c-15,0-30.5,0-46,0C186.1,121,193.7,128.7,201,136.1z
	 M142.9,140.1c14.7,0,29,0,42.7,0c-7.1-7.2-14.3-14.5-21.2-21.4C157.6,125.5,150.4,132.6,142.9,140.1z M240.4,118.2
	c-7.6,7.6-15.2,15.2-21.8,21.9c12,0,25.6,0,40,0C251.8,131.9,245.6,124.4,240.4,118.2z M89.8,118.1c-5.4,6.5-11.6,14-18.2,22
	c14.5,0,27.8,0,42.5,0C105.5,132.3,97.7,125.3,89.8,118.1z"/>
<path d="M170.8,31.5c-4,0-7.7,0-11.7,0c0-10.5,0-20.8,0-31.5c3.8,0,7.5,0,11.7,0C170.8,10.3,170.8,20.6,170.8,31.5z"/>
<path d="M328.4,158.1c0,4.1,0,7.8,0,11.8c-10.6,0-21,0-31.5,0c0-4.1,0-7.8,0-11.8C307.4,158.1,317.6,158.1,328.4,158.1z"/>
<path d="M31.5,158.1c0,3.9,0,7.7,0,11.8c-10.5,0-20.9,0-31.5,0c0-4,0-7.7,0-11.8C10.5,158.1,20.9,158.1,31.5,158.1z"/>
<path d="M309.9,240.8c-2.2,3.7-4,6.9-6.1,10.5c-9.3-5.3-18.3-10.5-27.7-16c2-3.6,3.8-6.8,5.9-10.6
	C291.3,230.1,300.4,235.3,309.9,240.8z"/>
<path d="M303.9,76.6c2.1,3.7,3.9,6.9,6,10.5c-9.3,5.4-18.4,10.7-27.7,16.1c-2.1-3.6-3.9-6.7-6.2-10.5
	C285.3,87.4,294.4,82.1,303.9,76.6z"/>
<path d="M53,92.3c-2.2,3.7-4,7-6.1,10.5c-9.3-5.4-18.4-10.6-27.8-16c2-3.6,3.9-6.8,6-10.6C34.4,81.6,43.4,86.8,53,92.3z"/>
<path d="M235.9,52.5c-3.8-2.2-7-4.1-10.6-6.2C230.8,37,236,28,241.4,18.6c3.5,2,6.8,3.9,10.5,6C246.6,33.9,241.4,42.9,235.9,52.5z"
	/>
<path d="M77.4,24.4c3.6-2.1,6.9-4,10.5-6.1c5.4,9.3,10.6,18.3,16.1,27.8c-3.4,2-6.7,3.9-10.5,6.2C88.1,42.9,82.8,33.8,77.4,24.4z"/>
<path d="M25.4,251.3c-2.2-3.8-4-6.9-6.1-10.5c9.3-5.4,18.4-10.7,27.8-16.1c2.1,3.7,4,6.9,6,10.6C44,240.7,35,245.8,25.4,251.3z"/>
<path class="st1" d="M136.9,153.6c18.7,0,36.5,0,55.2,0c-9,26.4-17.9,52.3-26.8,78.3c-0.4,0.1-0.8,0.2-1.2,0.3
	C155.1,206.2,146.1,180.2,136.9,153.6z"/>
<path class="st1" d="M254.2,152.6c-25.4,25.4-50.4,50.4-75.7,75.7c2.3-6.7,4.7-13.4,7-20.1c6-17.3,11.9-34.5,18.1-51.7
	c0.5-1.5,2.3-3.6,3.6-3.6C222.7,152.5,238.4,152.6,254.2,152.6z"/>
<path class="st1" d="M75.2,152.6c14.9,0,30.5,0,46.2,0.1c1.1,0,2.8,1.2,3.2,2.2c8.2,23.9,16.2,47.8,24.2,71.7c0,0.1-0.1,0.3,0.1-0.3
	C124.4,201.9,99.8,177.2,75.2,152.6z"/>
<path class="st1" d="M151.2,112.9c-8.1,8-15.8,15.7-23.1,23c-7.6-7.5-15.5-15.2-23.4-23C120.1,112.9,135.6,112.9,151.2,112.9z"/>
<path class="st1" d="M201,136.1c-7.3-7.3-15-15.1-22.9-23c15.4,0,31,0,46,0C216.5,120.6,208.8,128.4,201,136.1z"/>
<path class="st1" d="M142.9,140.1c7.6-7.5,14.7-14.7,21.5-21.4c6.9,6.9,14.1,14.2,21.2,21.4C171.8,140.1,157.5,140.1,142.9,140.1z"
	/>
<path class="st1" d="M240.4,118.2c5.2,6.3,11.4,13.7,18.2,21.9c-14.4,0-28.1,0-40,0C225.2,133.4,232.7,125.8,240.4,118.2z"/>
<path class="st1" d="M89.8,118.1c8,7.2,15.7,14.2,24.3,22c-14.7,0-28,0-42.5,0C78.2,132.1,84.4,124.6,89.8,118.1z"/>
</svg>
