<?xml version="1.0" encoding="utf-8"?>
<!-- Generator: Adobe Illustrator 19.0.0, SVG Export Plug-In . SVG Version: 6.00 Build 0)  -->
<svg version="1.1" id="Layer_1" xmlns="http://www.w3.org/2000/svg" xmlns:xlink="http://www.w3.org/1999/xlink" x="0px" y="0px"
	 viewBox="0 0 448.6 446.1" style="enable-background:new 0 0 448.6 446.1;" xml:space="preserve">
<style type="text/css">
	.st0{fill:#221E1F;}
</style>
<path class="st0" d="M208.6,101.7c-5.6-5.5-9.1-11.8-8.9-19.6c0.1-4.1,2.6-6.5,6.6-6.8c4-0.3,6.5,2.1,7.3,6c0.3,1.3,0.3,2.7,0.7,3.9
	c1.4,5,5,7.8,10.2,7.9c6.3,0.2,10.8-3.5,11.4-9.3c0.7-6.4-3.1-11.5-9.4-12.6c-7.5-1.3-8.7-2.8-8.8-10.5c0-2-0.1-4,0-6
	c0.5-7.5,0.4-13.5-8.7-17.6c-9.9-4.4-15-21.3-12-31.6c1-3.3,3.2-5.4,6.9-5.4C218.1,0,232.2,0,246.4,0c4.2,0,6.9,3,6.7,6.6
	c-0.3,6.7-1,13.7-3.1,20c-2.3,6.9-8.1,11.1-14.8,14.1c-1.5,0.7-2.4,2.9-3.2,4.6c-0.5,1,0,2.3-0.1,3.5c-0.7,5.7,0.7,9.2,6.5,12.4
	c13.6,7.5,15.8,26.4,5.5,38c-1,1.1-2,2.2-3.2,3.4c25.7,17.4,51.3,34.6,76.8,51.8c42.2,28.5,84.5,56.9,126.6,85.6
	c2.3,1.5,4.3,5.3,4.3,8.1c0.3,59.7,0.2,119.3,0.2,179c0,6.2-2.8,8.8-9.1,9.1c-43.6,1.5-87.2,3-130.9,4.5
	c-33.1,1.1-66.3,2.3-99.4,3.4c-19.6,0.7-39.3,1.8-58.9,1.9c-14.6,0-29.3-1.2-43.9-2.3c-23.9-1.7-47.8-3.7-71.7-5.6
	c-9-0.7-17.9-1.3-26.9-2.1c-5.5-0.5-7.6-3.1-7.6-9.6c0-31.2,0-62.3,0-93.5c0-35.3,0-70.6-0.1-106c0-4,1.5-6.5,4.9-8.4
	c65.8-37.7,131.6-75.5,197.4-113.2C204.4,104.2,206.3,103,208.6,101.7z M149.9,217.7c0,71.8,0,143,0,214.3
	c94.9-3.3,189.3-6.7,284.3-10c0-2.7,0-4.8,0-7c0-26.5,0-53,0-79.5c0-26,0-52,0-78c0-2.5,0.5-5-3.3-5.4c-11.4-1.2-22.8-2.7-34.2-4.1
	c-23.1-2.8-46.2-5.7-69.3-8.6c-25.4-3.1-50.9-6.3-76.3-9.4c-23.1-2.9-46.2-5.7-69.3-8.6C171.1,220.2,160.6,219,149.9,217.7z
	 M135.1,431.7c0-71.6,0-142.5,0-214.1c-19.3,2.3-38.2,4.5-57.1,6.7c0,67.9,0,135.3,0,203C97.2,428.7,116,430.2,135.1,431.7z
	 M14.7,231.8c0,63.7,0,127,0,190.6c16.3,1.3,32.3,2.5,48.5,3.8c0-66.9,0-133.4,0-200.1C46.8,228,30.8,229.9,14.7,231.8z
	 M317.9,224.2c-31.2-37.8-61.9-74.9-92.7-112.3c-23.4,30.9-46.3,61.2-69.8,92.2C209.8,210.8,263.4,217.4,317.9,224.2z M196.8,126.1
	c-0.2-0.3-0.4-0.6-0.6-0.8c-51.1,29.3-102.1,58.6-153.5,88.1c0.9,0.5,1.1,0.7,1.4,0.7c30.9-3.6,61.7-7.2,92.6-10.9
	c1.1-0.1,2.5-1,3.2-1.9C158.9,176.2,177.8,151.2,196.8,126.1z M263.6,135.2c0.6,1.5,0.7,1.8,0.9,2.1c24,29,47.9,58.1,72,87.1
	c1.1,1.3,2.9,2.5,4.5,2.7c21.8,2.8,43.6,5.5,65.4,8.1c1.3,0.2,2.6,0,3.9,0c0-0.3,0.1-0.6,0.1-1C361.8,201.4,313.2,168.7,263.6,135.2
	z M238.4,14.4c-9,0-18,0-27.1,0c0.4,8.7,5.9,14.1,13.9,13.9C233.1,28.1,238.5,22.5,238.4,14.4z"/>
<path class="st0" d="M203.5,326.2c0,20.6,0,41.3,0,61.9c0,3.9-1.6,7-5.3,7.3c-2.5,0.2-5.4-1.5-7.6-3.1c-1-0.7-1.1-3-1.1-4.6
	c-0.1-40.9-0.1-81.9,0-122.8c0-5.3,2.8-8.5,6.9-8.6c4.3-0.1,7,3.4,7,9C203.6,285.6,203.5,305.9,203.5,326.2z"/>
<path class="st0" d="M252.5,328.6c0,17.8,0,35.7,0,53.5c0,1.8,0.1,3.7-0.1,5.5c-0.3,4.3-3.6,7.7-7.3,7.2c-4.2-0.5-6.7-2.9-6.7-7.3
	c-0.1-8.8,0-17.7,0-26.5c0-29.7,0-59.3,0-89c0-0.7,0-1.3,0-2c0.2-4.5,3-7.7,6.8-7.8c4-0.1,7.2,3.1,7.3,7.8c0.1,11,0.1,22,0.1,33
	C252.5,311.6,252.5,320.1,252.5,328.6z"/>
<path class="st0" d="M301.4,331.1c0,17.5,0,35,0,52.4c0,0.7,0,1.3,0,2c-0.3,4.8-3.2,7.8-7.4,7.6c-4.1-0.1-6.7-2.8-6.8-7.6
	c-0.2-12.2-0.1-24.3-0.1-36.5c0-23.3,0-46.6,0.1-69.9c0-0.3,0-0.7,0-1c0.1-6.3,2.5-9.3,7.3-9.1c4.5,0.1,6.9,3.3,6.9,9.1
	c0,12.7,0,25.3,0,38C301.4,321.1,301.4,326.1,301.4,331.1z"/>
<path class="st0" d="M335.8,333.1c0-16.5,0-33,0-49.4c0-6.3,4.3-10.1,9.4-8.3c4.1,1.4,5.1,4.9,5.1,8.8c0,13.6,0,27.3,0,40.9
	c0,19,0,38,0,56.9c0,1.3,0.1,2.7-0.2,4c-0.9,3.8-3.1,6.2-7.3,6.1c-4-0.1-6-2.5-6.8-6.1c-0.4-1.8-0.2-3.6-0.2-5.5
	C335.8,364.8,335.8,349,335.8,333.1C335.8,333.1,335.8,333.1,335.8,333.1z"/>
<path class="st0" d="M399,336.7c0,15.1,0,30.3,0,45.4c0,3.7-0.6,7.1-4.5,8.7c-5.1,2.1-9.8-1.8-9.8-8.2c-0.1-17.5,0-34.9,0-52.4
	c0-13.3,0-26.6,0-39.9c0-4.1,1.4-7.2,5.5-8.4c4.7-1.4,8.7,2.1,8.7,8c0.1,13.1,0,26.3,0.1,39.4C399,331.7,399,334.2,399,336.7z"/>
<path class="st0" d="M106.9,331c0,3.3,0.1,6.6,0,10c-0.2,4.3-2.7,6.8-6.9,7c-3.8,0.2-7-3-7.2-7.4c-0.2-6.5-0.2-13,0-19.4
	c0.1-4.5,3.1-7.5,7.1-7.5c3.8-0.1,6.8,2.9,7.1,7.4C107,324.4,106.9,327.7,106.9,331C106.9,331,106.9,331,106.9,331z"/>
<path class="st0" d="M48.5,330.7c0,3.5,0.2,7,0,10.5c-0.2,4-3.5,7.1-7.1,6.8c-4.2-0.4-6.7-2.7-6.8-7.1c-0.1-6.6-0.1-13.3,0-19.9
	c0.1-4.4,3.2-7.4,7.1-7.4c3.9,0.1,6.7,3.1,6.9,7.6C48.6,324.4,48.5,327.6,48.5,330.7C48.5,330.7,48.5,330.7,48.5,330.7z"/>
</svg>
