<?xml version="1.0" encoding="utf-8"?>
<!-- Generator: Adobe Illustrator 19.0.0, SVG Export Plug-In . SVG Version: 6.00 Build 0)  -->
<svg version="1.1" id="Layer_1" xmlns="http://www.w3.org/2000/svg" xmlns:xlink="http://www.w3.org/1999/xlink" x="0px" y="0px"
	 viewBox="0 0 494.7 290.4" style="enable-background:new 0 0 494.7 290.4;" xml:space="preserve">
<style type="text/css">
	.st0{fill:#221E1F;}
</style>
<path class="st0" d="M367,136.9c-15.4,0-30.5,0-45.8,0c0,19.2,0,38.1,0,57.5c2.1,0,4-0.1,5.9,0c3.5,0.2,5.5,2.5,5.5,6
	c-0.1,3.3-2,5.3-5.5,5.5c-6,0.4-6,0.4-6,6.5c0,11,0,22.1,0,33.1c0,2.8-0.6,5.1-3.6,6.2c-4.4,1.6-7.9-1.1-8-6.1
	c-0.1-11.2,0-22.3,0-33.5c0-24.5,0-48.9,0-73.4c0-9.3,4.3-13.6,13.7-13.6c14.3,0,28.6,0,42.9,0c8.1,0,12.8,4.6,12.8,12.8
	c0,35.6,0,71.2,0,106.9c0,2.7-0.3,5.3-3,6.7c-4.3,2.2-8.6-0.6-8.7-5.8c-0.1-8.3,0-16.7,0-25c0-26.9,0-53.9,0-80.8
	C367.1,138.9,367.1,138,367,136.9z"/>
<path class="st0" d="M222.9,7.4c4.3-1.9,15.4-7.6,26.5-7.4c14,0.3,24,6.4,27.8,7.8c12.3,5.3,24.4,10.6,36.6,15.8
	c41.4,17.8,82.9,35.5,124.3,53.2c2.7,1.1,5.7,1.7,8.6,2c5.8,0.5,8.5,3.2,8.5,9.4c0,15.2,0,30.3,0,45.5c0,48.5,0,97,0,145.5
	c0,9-2.2,11.2-11.3,11.2c-109,0-218,0-327,0c-20.3,0-40.7,0-61,0c-8.8,0-10.8-2.2-10.8-11c0-63.5,0-127,0-190.5
	c0-7.7,1.9-9.5,9.7-10c1.6-0.1,3.3-0.5,4.8-1.1c53.5-22.9,107-45.9,160.5-68.9C220.9,8.5,221.6,8.1,222.9,7.4 M60.4,274.7
	c126.8,0,252.9,0,379.6,0c0-2.2,0-4,0-5.8c0-55.5,0-111,0-166.4c0-10.4,0.7-8.6-8.4-8.6c-122-0.1-243.9,0-365.9,0
	c-1.8,0-3.5,0.2-5.3,0.2C60.4,154.6,60.4,214.5,60.4,274.7z M402.7,78.6c-1.9-1.1-2.6-1.6-3.3-1.9c-44.3-19-88.6-38-133-56.9
	c-1.8-0.7-31.6-0.6-33.7,0.3c-43.5,18.5-86.9,37.1-130.3,55.7c-1.4,0.6-2.8,1.4-4.2,2.1c0.1,0.2,0.1,0.5,0.2,0.7
	C199.4,78.6,300.3,78.6,402.7,78.6z"/>
<path class="st0" d="M180.6,135.2c0,35.7,0,70.5,0,105.8c2.1,0.2,4.2-0.2,5.6,0.7c1.8,1.1,4,3.1,4,4.8c0,1.6-2.3,4.3-4,4.6
	c-3.7,0.7-7.6,0.6-11.4,0.2c-4-0.5-4.6-3.7-4.6-7.1c0-23.2,0-76.1,0-99.3c0-14.2,0,1.7,0-12.5c0-6,1.4-7.2,7.4-7.3
	c2.5,0,5.2-0.6,7.4,0.2c2.1,0.8,3.7,3,5.4,4.6c-1.7,1.7-3.3,3.7-5.2,5C184.3,135.5,182.5,135.1,180.6,135.2z"/>
<path class="st0" d="M245.1,241c2,0.2,4.1-0.2,5.5,0.7c1.7,1,4,3.1,4,4.7c0,1.6-2.2,4.3-3.8,4.7c-3.7,0.7-7.6,0.6-11.4,0.2
	c-3.8-0.4-4.4-3.3-4.4-6.7c0-17.3,0-4.7,0-22c0-20,0-69.8,0-89.8c0-6.9,0.9-7.8,7.8-7.8c2.3,0,4.7,0,7,0.1c3.2,0.1,5.1,1.6,5.1,4.8
	c0,3.3-2,4.8-5.1,5c-1.5,0.1-3,0-4.7,0C245.1,170.5,245.1,205.6,245.1,241z"/>
<path class="st0" d="M116.1,241.1c2,0.2,4.1-0.2,5.5,0.6c1.7,1,4,3,4,4.7c0,1.6-2.2,4.4-3.8,4.7c-3.7,0.7-7.6,0.6-11.4,0.2
	c-3.8-0.4-4.5-3.3-4.4-6.6c0.1-14.2,0-28.3,0-42.5c0-23.2,0-46.3,0-69.5c0-7,0.8-7.8,7.7-7.8c2.3,0,4.7,0,7,0c3.2,0,5.6,1.7,5,4.8
	c-0.4,2-3,3.7-4.9,5c-1.1,0.7-2.9,0.2-4.6,0.3C116.1,170.3,116.1,205.6,116.1,241.1z"/>
<rect x="0" y="78.6" class="st0" width="79" height="15.1"/>
<rect x="415.7" y="78.6" class="st0" width="79" height="15.1"/>
</svg>
