<?xml version="1.0" encoding="utf-8"?>
<!-- Generator: Adobe Illustrator 19.0.0, SVG Export Plug-In . SVG Version: 6.00 Build 0)  -->
<svg version="1.1" id="Layer_1" xmlns="http://www.w3.org/2000/svg" xmlns:xlink="http://www.w3.org/1999/xlink" x="0px" y="0px"
	 viewBox="0 0 512 512" style="enable-background:new 0 0 512 512;" xml:space="preserve">
<style type="text/css">
	.st0{fill:#221E1F;}
</style>
<path class="st0" d="M184,512c-5.3,0-10.7,0-16,0c0-18.8,0-37.6,0-56.6c-1-0.4-1.9-0.8-2.8-1.1c-15.7-4.7-29.8-21.3-29.3-41.4
	c0.7-26.1-0.7-52.4,0.5-78.5c0.6-13.9-3.8-23.2-13.5-32.9c-9.9-9.9-19.5-16.3-33.7-13.6c-1.1,0.2-2.3,0-3.5,0c-7.1,0-14.2,0-21.4,0
	c0-5.6,0-10.5,0-15.8c16.4,0,32.5-0.1,48.7,0.2c2.1,0,4.5,2,6.2,3.6c5,4.7,10.3,9.2,14.4,14.6c8.5,11.3,19.2,15.9,33.1,13.6
	c1.8-0.3,3.7,0,5.5,0c3.9,0,7.8,0,11.6,0c0-40.4,0-80,0-120.3c-9.9,11-21.1,17.6-35.5,16c-14.4-1.6-24.5-10.1-32.2-22.5
	c-1.2,1.8-2.2,3.1-3.1,4.4c-10.2,14.9-27.7,21.5-43.6,16.6C51.9,192.9,40,176.8,40,158.6c0-49.2,0.1-98.3-0.1-147.5
	c0-4.7,1.1-8.4,5-11.1c155.7,0,311.3,0,467,0c0,55.3,0,110.7,0,166c-0.4,1.2-0.9,2.4-1.3,3.7c-8.1,27.2-42.6,43.2-67.6,17
	c-0.7-0.8-1.1-2-1.6-3c-0.4,0.3-0.8,0.7-1.2,1c0,39.7,0,79.3,0,119.4c7.2,0,14.2,0,21.2,0c8.1,0,10.5,2.4,10.5,10.3
	c0,33.8,0.1,67.6,0,101.4c0,21.6-18.6,40-40.3,40.1c-5.8,0-11.6,0-17.2,0c-0.3,0.7-0.5,1-0.6,1.3c-0.4,1.1-0.7,2.2-1,3.3
	c-8.6,24.6-25.2,41-50.2,48.7c-3.5,1.1-7,1.8-10.6,2.7c-5.3,0-10.7,0-16,0c-0.8-0.3-1.5-0.7-2.3-0.9c-29.6-5.7-49-23.1-58.6-51.5
	c-1.1-3.2-2.7-3.8-5.7-3.8c-26.8,0.1-53.6,0.1-80.4,0.1c-1.6,0-3.2,0.2-5,0.3C184,475.1,184,493.6,184,512z M456.1,320.3
	c-101.7,0-202.8,0-303.9,0c-0.1,1-0.2,1.6-0.2,2.3c0,31.3-0.1,62.6,0,94c0.1,14.4,9.9,23.5,24.8,23.6c26.7,0,53.3,0,80,0
	c5,0,9.9,0,14.8,0c2.3-46.8,41.5-72,71.9-72.2c31.5-0.2,70.7,25.8,72.9,72.2c4.8,0,9.6,0,14.3,0c15.9-0.1,25.2-9.4,25.3-25.1
	c0.1-16.2,0-32.3,0-48.5C456.1,351.2,456.1,335.9,456.1,320.3z M271.9,165.6c-4.6,17.1-14.3,28.4-30.2,33
	c-16.6,4.7-30-2.2-41.3-14.5c0,40.5,0,80.2,0,119.7c74.8,0,149.1,0,223.3,0c0-40,0-79.6,0-119.8c-11.6,12.8-24.9,19.4-41.5,14.6
	c-15.9-4.6-25.4-16-29.9-32.3c-10.5,24.4-23.4,34.5-42.3,33.8C293,199.2,279.3,187.2,271.9,165.6z M343.8,496
	c32.2,0,56.2-24,56.2-56.3c0-31.7-24.3-55.9-56.1-55.9c-31.9,0-56,24.1-56,56C287.9,471.8,312.1,496.1,343.8,496z M343.7,127.9
	c0-37.6,0-74.6,0-111.6c-21.4,0-42.5,0-63.4,0c0,37.4,0,74.4,0,111.6C301.6,127.9,322.5,127.9,343.7,127.9z M423.7,127.9
	c0-37.6,0-74.6,0-111.6c-21.4,0-42.5,0-63.4,0c0,37.4,0,74.4,0,111.6C381.6,127.9,402.5,127.9,423.7,127.9z M200.1,127.7
	c21.6,0,42.6,0,63.6,0c0-37.4,0-74.4,0-111.5c-21.4,0-42.4,0-63.6,0C200.1,53.6,200.1,90.5,200.1,127.7z M183.7,127.9
	c0-37.5,0-74.6,0-111.6c-21.4,0-42.4,0-63.5,0c0,37.4,0,74.4,0,111.6C141.5,127.9,162.5,127.9,183.7,127.9z M440.3,16.1
	c0,37.6,0,74.6,0,111.6c18.7,0,37.1,0,55.5,0c0-37.4,0-74.4,0-111.6C477.1,16.1,458.9,16.1,440.3,16.1z M56.3,16.2
	c0,37.4,0,74.6,0,111.5c16.1,0,31.9,0,47.3,0c0-37.4,0-74.5,0-111.5C87.6,16.2,72,16.2,56.3,16.2z M448,144.1
	c0,6.5-0.4,12.5,0.1,18.4c0.9,12.1,9.1,20.1,21.2,21.4c11.6,1.3,22.7-4.7,25.1-15.1c1.9-7.9,1.6-16.3,2.3-24.7
	C479.8,144.1,464.2,144.1,448,144.1z M368,144.1c0,6.5-0.4,12.4,0.1,18.4c0.9,12.1,9.1,20.1,21.1,21.5c11.8,1.3,23-5,25.3-15.6
	c1.7-7.8,1.4-16,2.1-24.3C399.8,144.1,384.2,144.1,368,144.1z M288,144.1c0,6.4-0.3,12.2,0.1,18c0.7,12.1,8.7,20.3,20.8,21.8
	c11.5,1.5,22.8-4.3,25.4-14.7c2-8,1.8-16.6,2.6-25.1C319.7,144.1,304.1,144.1,288,144.1z M208,144.1c0,6.4-0.4,12.4,0.1,18.4
	c0.9,12.1,9,20.2,21.1,21.5c11.8,1.3,23-5,25.3-15.6c1.7-7.8,1.4-16,2.1-24.3C239.8,144.1,224.2,144.1,208,144.1z M175.5,144.3
	c-15.8,0-31.5,0-47.5,0c0,6.3-0.4,12.3,0.1,18.2c0.9,12.6,10,21,22.6,21.6c12.9,0.6,22.7-6.5,24.6-19
	C176.3,158.4,175.5,151.5,175.5,144.3z M103.9,144.3c-16.3,0-32,0-47.9,0c0,6.3-0.4,12.3,0.1,18.3c1.1,13.1,10.4,21.3,23.7,21.5
	c13.1,0.2,22.8-8.1,24.1-21.1C104.4,156.9,103.9,150.7,103.9,144.3z"/>
<path class="st0" d="M0,360c2-3.2,3.7-6.7,6.2-9.5c3.9-4.4,8.9-6.5,15-6.5c23.1,0.1,46.3,0,69.4,0.1c9.8,0,18.5,6.8,20.9,16.2
	c1.9,7.7-2.7,17.2-11.3,21.3c-3.7,1.8-4.4,3.9-4.4,7.6C96,430.1,96,471,96,512c-5.3,0-10.7,0-16,0c0-10.6,0-21.2,0-31.7
	c-16.4,0-32.1,0-48,0c0,10.8,0,21.3,0,31.7c-5.3,0-10.7,0-16,0c0-10,0.1-20,0.1-30c0-31.3,0-62.6-0.1-93.9c0-1.7-0.6-4.5-1.7-5
	c-7-3-11.3-8.5-14.3-15.2C0,365.3,0,362.7,0,360z M79.7,463.9c0-26.9,0-53.3,0-79.6c-16.1,0-31.8,0-47.5,0c0,26.7,0,53.1,0,79.6
	C48.2,463.9,63.8,463.9,79.7,463.9z M56,368.1C56,368.1,56,368.1,56,368.1c11.6,0,23.3-0.1,34.9,0c3.1,0,5.2-0.7,5.1-4.4
	c-0.1-3.6-2.4-3.8-5.1-3.8c-23.1,0-46.2,0-69.3,0c-3.1,0-5.8,0.2-5.6,4.4c0.1,4,2.9,3.8,5.6,3.8C33.1,368.1,44.5,368.1,56,368.1z"/>
</svg>
