<?xml version="1.0" encoding="utf-8"?>
<!-- Generator: Adobe Illustrator 19.0.0, SVG Export Plug-In . SVG Version: 6.00 Build 0)  -->
<svg version="1.1" id="Layer_1" xmlns="http://www.w3.org/2000/svg" xmlns:xlink="http://www.w3.org/1999/xlink" x="0px" y="0px"
	 viewBox="0 0 507.9 515.9" style="enable-background:new 0 0 507.9 515.9;" xml:space="preserve">
<style type="text/css">
	.st0{fill:#221E1F;}
</style>
<path class="st0" d="M60.5,253.2c-5.7,0-11,0-16.3,0c-9.3-0.1-14.3-5-14.4-14.1c-0.1-6.7-0.2-13.3,0-20c0.2-9,6.3-13.9,15.3-12.5
	c2.9,0.5,5.9,1.1,8.7,2c13.2,4.3,26.9,4,40.5,4.1c10.1,0,18.5,8.1,19.5,18c1,9.9-6.1,19.9-16,21.7c-5.2,0.9-10.6,0.6-15.9,0.8
	c-1.5,0.1-2.9,0-4.8,0c0,38.8,0,77.2,0,115c9.6,3.3,18.9,6.6,28.8,10.1c31.4-39.5,63.2-79.7,95.8-120.9c-7.6,0-14,0-20.3,0
	c-5.9,0-9.4-3.1-9.3-8c0.1-4.7,3.5-7.7,9.1-7.7c9.4-0.1,18.9,0,28.9,0c0-7.3,0-14.1,0-20.9c0.1-6.7,2.7-9.4,9.4-9.5
	c22.8-0.1,45.7-0.1,68.5,0c3.4,0,5.1-0.5,5.1-4.6c-0.2-35.3-0.1-70.7-0.1-106c0-1-0.1-2-0.2-2.9c-8.8-0.4-18.3,7.9-19.7,17.2
	c-0.9,6.1-3.4,8.8-8.2,8.7c-4.5-0.1-7.2-3-7.7-8.7c-0.6-6.2-4.2-10.4-9-13.7c-10.9-7.5-27.9-7.2-38.7,0.5c-4.9,3.5-7.8,8-8.5,14.1
	c-0.6,5.4-3.8,8.1-8.4,7.8c-4.5-0.3-7.4-3.7-7.3-9c0.8-31.8,12-59.4,35.1-81.2C254.5,1.2,294.9-8.2,339.1,7.2
	c44.2,15.4,69.3,48.3,76.5,94.6c0.5,3.3,0.6,6.7,0.4,10c-0.2,4-2.8,7.1-6.5,6.9c-2.8-0.1-6.8-2.1-8-4.4c-7.4-14.6-19.9-21-36-17.2
	c-10.9,2.6-19.4,7.8-20.7,20.4c-0.4,4.2-3.7,6.2-7.9,6.1c-4.6-0.1-6.9-2.9-7.6-7.2c-1.8-10.9-8.6-17.5-20.1-19.3
	c0,37.8,0,75.5,0,114.1c3.5,0,7.1,0.2,10.6,0c15.5-1.2,30.1,1.9,44.8,7.3c44.8,16.5,89.9,32.1,134.9,48c7.6,2.7,8.4,3.8,8.4,12
	c0,52,0,104,0,156c0,9-2.2,11.3-11.1,11.3c-24.5,0-49,0-73.5,0c-2.3,0-4.6,0-7.3,0c-3.2,20.4-12.7,36.6-29.4,48.3
	c-11.8,8.3-25.1,12.3-39.4,12.2c-17.3-0.2-32.6-6.1-45.5-17.7c-12.8-11.5-20-26-22.3-42.7c-47.6,0-94.7,0-142,0
	c-0.6,2.9-1.1,5.5-1.7,8.1c-8.6,35-42.9,57.4-78.7,51.3c-34.7-5.9-59.7-38.4-56.6-73.7c2.7-30.9,25.4-55.8,56.5-61.7
	c2.5-0.5,4.3-0.7,4.3-4c-0.1-36.7-0.1-73.3-0.1-110C60.9,255.2,60.7,254.6,60.5,253.2z M226.2,227.2c0,67.8,0,135,0,202.3
	c17.8,0,35.2,0,53,0c2.4-17.1,9.7-31.5,22.5-43c12.8-11.5,27.9-17.3,45.1-17.6c14.7-0.2,28.3,4,40.3,12.6
	c16.6,11.8,25.9,28.2,28.9,48.2c25.5,0,50.6,0,75.9,0c0-49.8,0-99.2,0-148.8c-1.6-0.6-3.1-1.3-4.7-1.8
	c-47.8-16.9-95.7-33.8-143.5-50.6c-2.3-0.8-4.9-1.1-7.3-1.1c-34.5-0.1-69,0-103.5,0C230.7,227.2,228.6,227.2,226.2,227.2z
	 M265.7,95.3c9.7-10.7,22-15.5,35.8-15.4c13.7,0.1,26,4.9,35.5,15c17.4-16.3,37-18.2,58.4-10.3c-10.2-35.2-48.3-71.9-102-68
	c-39.1,2.9-83.9,38.4-85.9,68C228.7,77.2,248.3,79,265.7,95.3z M209.8,272.5c-31.4,39.5-61.9,77.9-92.5,116.4
	c11.2,11.7,17.6,25.1,19.7,40.4c24.5,0,48.5,0,72.7,0C209.8,377.3,209.8,325.7,209.8,272.5z M61,386.1c-26,2.1-46.5,27.7-45,55.3
	c1.5,28.3,25.7,49.9,55.1,49.3c24.6-0.6,49.1-22.6,49.3-44.5c-0.5-0.1-0.9-0.4-1.4-0.4c-16,0-32-0.1-48,0.2
	c-6.8,0.1-10-2.5-10.1-9.1c0-1.7,0-3.3,0-5C61,416.7,61,401.6,61,386.1z M347.7,385.2c-28.1-0.2-52,22.9-53,49.9
	c-1.2,32,24.4,55.6,52.2,55.7c28.3,0.1,52.3-22.6,53.4-49.5C401.8,407.3,374.2,384.4,347.7,385.2z M107.1,401.8
	c-7.4,9.3-14.3,18.1-21.8,27.6c12.5,0,23.8,0,35.6,0C119.1,418.9,114.8,410,107.1,401.8z M45.2,236.9c1.3,0.2,2.1,0.4,2.9,0.4
	c14.5,0,28.9,0,43.4,0c1,0,2.3,0.1,2.9-0.4c1.3-1.3,2.9-3,2.9-4.5c0-1.3-1.8-2.9-3.2-3.7c-1.2-0.6-2.9-0.3-4.4-0.2
	c-12.5,0.4-24.9,0-37-3.9c-2.3-0.7-4.7-1-7.4-1.5C45.2,227.8,45.2,232.1,45.2,236.9z M95.3,391.6c-6.4-2.3-12-4.3-18.2-6.5
	c0,10.1,0,19.2,0,29.4C83.5,406.6,89.1,399.6,95.3,391.6z"/>
<path class="st0" d="M306.1,36.6c17.1,1,32.8,7.4,46.6,18.8c2.1,1.7,3.7,3.8,1.6,6.3c-2.2,2.7-4.5,1.8-6.9-0.2
	c-12.6-10.6-27.1-16.5-43.7-17.1c-3.1-0.1-6.6-0.1-6.4-4.3c0.2-4,3.6-3.6,6.5-3.5C304.3,36.6,304.8,36.6,306.1,36.6z"/>
<path class="st0" d="M315,437.5c0.1-18.3,14.9-32.9,33.2-32.7c17.6,0.2,32.2,15.2,32.1,32.8c-0.2,18.5-14.8,32.9-33.1,32.7
	C329.4,470.1,314.9,455.2,315,437.5z M347.6,413.2c-13.8,0-24.8,10.9-24.8,24.6c-0.1,13.9,11.1,25.1,25,25
	c13.7-0.1,24.6-11.2,24.6-24.9C372.3,424.1,361.3,413.2,347.6,413.2z"/>
</svg>
