<?xml version="1.0" encoding="utf-8"?>
<!-- Generator: Adobe Illustrator 19.0.0, SVG Export Plug-In . SVG Version: 6.00 Build 0)  -->
<svg version="1.1" id="Layer_1" xmlns="http://www.w3.org/2000/svg" xmlns:xlink="http://www.w3.org/1999/xlink" x="0px" y="0px"
	 viewBox="0 0 482.3 287.7" style="enable-background:new 0 0 482.3 287.7;" xml:space="preserve">
<style type="text/css">
	.st0{fill:#221E1F;}
</style>
<path class="st0" d="M294.4,236.7c0-56.2,0-112.2,0-168.6c2.3-0.1,4.2-0.3,6.1-0.3c46,0,92,0,138,0c4,0,8-0.1,12-0.6
	c5.6-0.6,8.1-3.3,8-8.9c-0.2-10.5-5.3-18.7-13.1-25.3c-11.6-9.8-25.6-14.6-40.3-16c-17.2-1.6-34.6-2.1-51.9-2.1
	C245,14.7,136.8,14.7,28.7,14.7C19.4,14.7,15,19,15,29.2c-0.2,34.8-0.1,69.7-0.1,104.5c0,29.7,0,59.3,0,89
	c0,10.5,3.6,14.5,14.2,14.9c6.5,0.2,12.9,0,19.8,0c0,5.1,0,9.6,0,15.3c-9.5-0.6-18.9-0.1-27.9-1.9c-13.9-2.8-21-13.3-21-28.2
	c0.1-62.7,0.1-125.3,0.1-188c0-4,0.1-8,1-11.9C4.3,7.6,13.8,0,29.3,0c116.8,0,233.6,0,350.5,0c21.5,0,42.5,3.3,62,13.1
	c15.7,8,27,19.8,30.7,37.7c3.4,16.2-5.4,29.4-22.1,30.8c-14.2,1.2-28.6,0.6-42.9,0.8c-2.1,0-4.2,0-7.2,0c3.1,5.9,5.8,10.8,8.4,15.8
	c8.2,15.1,16.2,30.2,24.7,45.1c1.3,2.3,4,4.3,6.6,5.2c7.1,2.4,14.5,3.7,21.5,6.2c13.3,4.6,20.2,14.6,20.6,28.4
	c0.5,20.3,0.3,40.6,0.2,61c0,5.1-2.9,7.5-8.5,7.6c-11.8,0.1-23.7,0.1-35.5,0c-3.2,0-4.5,0.8-5.3,4.2c-4.4,19.3-23.1,33.3-42.3,31.8
	c-18.9-1.5-36-18.4-37-37.9c-0.9-17,7.5-29.5,22-37.5c14.6-8.2,29.2-6.5,41.9,4c5.6,4.6,9.1,11.6,13.6,17.5c1,1.3,2.3,3.2,3.5,3.2
	c10.6,0.3,21.3,0.1,31.7,0.1c0.4-0.6,0.8-0.8,0.8-1.1c0-17.8,0.3-35.6,0-53.5c-0.1-7.8-5.3-12.5-12.4-14.5
	c-10.8-3.2-21.7-5.7-33.3-5.5c-25.8,0.5-51.7,0.2-77.5,0.2c-8.2,0-10.6-2.6-10.5-10.8c0.1-21.8,0-43.7,0-65.5c0-1-0.1-2-0.3-3.3
	c-7.9,0-15.6,0-23.8,0c0,51.2,0,102.3,0,154.1c7.3,0,14.5,0,22.1,0c0,5.1,0,9.6,0,14.9c-3.7,0-7.3,0-10.9,0
	c-55.2,0-110.3,0-165.5-0.1c-4,0-5.6,1-6.6,5.1c-4.8,19-23.2,32.3-42,30.8c-18.7-1.4-35.2-18.2-37-37.5c-1.4-15.1,8.7-31.8,23.8-39
	c14.7-7.1,31.9-4.3,43.7,7.8c4.2,4.3,6.8,10.1,10.4,15.1c1,1.3,2.8,2.9,4.2,2.9c46.8,0.1,93.7,0.1,140.5,0.1
	C292.7,237,293.2,236.9,294.4,236.7z M348.7,147.5c23.5,0,46.3,0,69.1,0c-0.1-0.7,0-1.1-0.1-1.3c-11.1-20.5-22.1-41-33.3-61.3
	c-0.7-1.2-2.8-2.2-4.4-2.2c-6-0.3-12-0.1-18-0.1c-4.4,0-8.8,0-13.4,0C348.7,104.6,348.7,125.8,348.7,147.5z M109.9,273
	c14.8,0,25.5-10.8,25.5-25.6c0-14.8-10.7-25.4-25.6-25.5c-14.7-0.1-25.6,10.9-25.5,25.6C84.4,262.5,95,273,109.9,273z M394,273
	c14.8-0.1,25.4-10.8,25.3-25.7c-0.1-14.5-10.8-25.3-25.2-25.4c-15.1,0-25.8,10.7-25.9,25.7C368.3,262.3,379.2,273.1,394,273z"/>
<path class="st0" d="M266.6,215.3c-14.5,2.3-14.7,2.3-14.7-10.9c0-38.5,0-77,0-115.4c0-8.5,0.8-7.6-7.9-7.7c-13-0.1-26,0-39,0
	c-1.8,0-3.6,0.2-5.8,0.3c0,44.8,0,89.2,0,134c-5,0-9.5,0-14.8,0c0-1.9,0-3.8,0-5.8c0-44.3,0-88.6,0-132.9c0-8.2,2.1-10.3,10.4-10.3
	c20.2,0,40.3,0,60.5,0c9.8,0,11.5,2.2,11.4,12.2c-0.2,28.3-0.1,56.6-0.1,85c0,15.3,0,30.6,0,46C266.6,211.5,266.6,213.3,266.6,215.3
	z"/>
<path class="st0" d="M99.8,68.6c13,0,26,0,39,0c7,0,9.3,2.4,9.3,9.2c0,19.7,0,39.3,0,59c0,6.9-2.3,9.3-9.3,9.3
	c-26.3,0.1-52.6,0.1-79,0c-6.9,0-9.2-2.5-9.2-9.5c0-19.3-0.1-38.6,0-58c0-7.8,2.3-10,10.2-10.1C73.9,68.6,86.9,68.6,99.8,68.6z
	 M133.2,83.4c-21.8,0-43.1,0-64.4,0c-3.2,0-3.4,1.9-3.3,4.2c0,13,0.2,26-0.1,39c-0.1,4.2,1.6,5,5.3,5c19.3-0.1,38.6-0.1,58-0.1
	c1.5,0,2.9-0.2,4.6-0.3C133.2,115.3,133.2,99.7,133.2,83.4z"/>
<path class="st0" d="M376.1,47.7c-5.1,0-10.3,0.1-15.4,0c-4.9-0.1-8.3-3.4-8.1-7.6c0.2-4,3.4-7.1,8.1-7.1c10.5-0.1,20.9-0.1,31.4,0
	c4.7,0.1,7.8,3.1,7.8,7.3c0,4.1-3.2,7.2-7.8,7.3C386.8,47.8,381.5,47.7,376.1,47.7z"/>
</svg>
