<?xml version="1.0" encoding="utf-8"?>
<!-- Generator: Adobe Illustrator 19.0.0, SVG Export Plug-In . SVG Version: 6.00 Build 0)  -->
<svg version="1.1" id="Layer_1" xmlns="http://www.w3.org/2000/svg" xmlns:xlink="http://www.w3.org/1999/xlink" x="0px" y="0px"
	 viewBox="0 0 512 448" style="enable-background:new 0 0 512 448;" xml:space="preserve">
<style type="text/css">
	.st0{fill:#221E1F;}
</style>
<path class="st0" d="M261,0c82,0,164,0,246,0c3.6,2.6,5,6,5,10.6c-0.1,116.1-0.1,232.3-0.1,348.4c0,22.5-18.4,40.8-41.1,40.9
	c-2.5,0-4.9,0-7.2,0c-7.6,28.5-28.1,47-52.6,48c-12.3,0.5-23.4-2.7-33.5-9.5c-13.6-9.2-21.8-22.1-25.1-38.1c-43.2,0-86.1,0-129,0
	c-7.4,28.1-28,46.7-52.5,47.7c-12.3,0.5-23.4-2.7-33.5-9.6c-13.6-9.2-21.8-22.1-25.1-38.2c-1.8-0.1-3.2-0.2-4.7-0.2
	c-21.8,0-43.7-0.1-65.5,0c-17.2,0.1-29.4-8-37.9-22.5c-1.3-2.2-2.9-4.3-4.4-6.5c0-25,0-50,0-75c0.4-1.3,0.8-2.5,1.1-3.8
	c5.3-29.6,29.3-53.8,59.1-59c3.2-0.6,4-1.8,4-4.8c-0.2-12-0.1-24-0.1-36c0.3-57.2,46.7-103.9,103.9-104.2c3.5,0,5.8-1.2,8.2-3.6
	c25.6-25.7,51.3-51.4,77-77.1C255.7,5,258.4,2.5,261,0z M247.9,104.1c-1.4-0.1-2.4-0.2-3.4-0.2c-26.2,0-52.3-0.1-78.5,0.1
	c-6.4,0.1-13,1-19.3,2.5c-39.4,9.4-66.2,43-66.8,83.5c-0.2,16,0,32,0,48c0,6.9-2.7,9-9.5,10.1c-8.3,1.3-16.9,2.7-24.4,6.1
	c-22,10.1-32.9,34.8-29.3,57.8c4.9,0,9.9,0,14.9,0c17.4,0.2,32.4,15.2,32.3,32.2c-0.1,16.7-15.3,31.5-32.4,31.6c-3,0-6.1,0-10.1,0
	c5.8,6.4,12.1,8.1,19,8.1c23,0.1,46,0,69,0c1.1,0,2.2-0.3,3.2-0.5c6.2-26.6,26.2-45.3,50.6-47.4c11.8-1,22.9,1.7,32.9,7.9
	c14.9,9.2,24,22.7,27.4,39.6c8.4,0,16.3,0,24.4,0C247.9,290.5,247.9,197.6,247.9,104.1z M424,117.6c-5.9,19.7-17.4,32.7-37.2,34
	c-22.8,1.5-35.9-12.3-42.8-33.1c-10.5,23.9-22.8,34.4-41.1,33.3c-20.4-1.2-32.3-13.5-38.7-32.9c0,38.1,0,75.5,0,113
	c77.3,0,154.4,0,231.5,0c0-31.9,0-63.6,0-95.6C468.4,166.4,431.6,148.8,424,117.6z M352.3,383.8c8.6-29.5,29.1-47.4,54-47.8
	c12.5-0.2,23.6,3.4,33.6,10.7c12.7,9.2,20.4,21.6,23.5,36.8c21.1,3.2,32.7-6.5,32.7-27.4c0-14.8,0-29.7,0-44.5c0-2.4,0-4.9,0-7.4
	c-77.7,0-154.8,0-231.8,0c0,26.7,0,53.1,0,79.6C293.9,383.8,323.1,383.8,352.3,383.8z M495.9,248.3c-77.6,0-154.6,0-231.6,0
	c0,13.4,0,26.5,0,39.5c77.4,0,154.4,0,231.6,0C495.9,274.4,495.9,261.5,495.9,248.3z M368,391.8c-0.1,22.9,16.7,40.1,39.3,40.2
	c23.5,0.2,40.6-16.5,40.7-39.9c0.1-22.9-16.7-40.1-39.4-40.2C385.1,351.8,368.1,368.4,368,391.8z M208,391.7
	c0-22.8-17-39.8-39.8-39.8c-23.5,0-40.3,16.8-40.3,40.3c0,22.8,17,39.8,39.8,39.8C191.2,432.1,208.1,415.2,208,391.7z M495.9,16.2
	c-21.5,0-42.6,0-63.6,0c0,24,0,47.7,0,71.5c21.4,0,42.4,0,63.6,0C495.9,63.8,495.9,40.2,495.9,16.2z M415.9,16.3
	c-21.6,0-42.6,0-63.6,0c0,24.1,0,47.8,0,71.4c21.4,0,42.4,0,63.6,0C415.9,63.7,415.9,40.2,415.9,16.3z M272.1,87.7
	c21.6,0,42.6,0,63.6,0c0-24.1,0-47.8,0-71.5c-21.4,0-42.4,0-63.6,0C272.1,40.2,272.1,63.8,272.1,87.7z M196.5,87.7
	c19.9,0,39.6,0,59.2,0c0-20,0-39.6,0-59.2C235.9,48.3,216.3,67.9,196.5,87.7z M440.1,104.1c-0.7,12,0.1,22.9,11.8,29
	c9.3,4.8,18.9,4.4,27.3-2c9.1-6.8,9.5-16.7,8.6-27C471.7,104.1,456.1,104.1,440.1,104.1z M407.9,104.3c-16.2,0-31.9,0-47.8,0
	c-0.7,11.2-0.1,21.6,10.4,28c8.8,5.4,18.2,5.3,27,0C408,125.9,408.6,115.4,407.9,104.3z M280.1,104.1c-0.8,11.5-0.1,22.1,10.7,28.4
	c9.2,5.4,19,5.1,27.8-1c9.6-6.7,10-16.8,9.1-27.4C311.8,104.1,296.2,104.1,280.1,104.1z M16.3,328c0,10.7,0,21.3,0,32
	c6.1,0,11.7,0.3,17.4-0.1c9.1-0.6,14.6-7.1,14.4-16.5c-0.2-9.1-5.8-15.1-14.9-15.5C27.7,327.8,22.3,328,16.3,328z"/>
<path class="st0" d="M163.5,207.9c-21.8,0-43.6,0-65.5,0c-7.3,0-9.6-2.6-10-9.9c-2.2-42.4,26.6-73.1,56.5-82.1
	c7.4-2.2,15.3-3.5,23-3.7c20.6-0.5,41.3-0.2,62-0.2c7.9,0,10.4,2.6,10.4,10.5c0,25,0,50,0,75c0,7.8-2.6,10.4-10.5,10.4
	C207.5,207.9,185.5,207.9,163.5,207.9C163.5,207.9,163.5,207.9,163.5,207.9z M223.7,191.8c0-21.5,0-42.5,0-63.6
	c-20.8,0-41.3-0.6-61.7,0.3c-8,0.4-16.4,3.2-23.8,6.6c-21.3,9.7-35,33.1-33.9,56.7C144,191.8,183.7,191.8,223.7,191.8z"/>
<path class="st0" d="M223.8,216.4c0,5.1,0,9.9,0,15.1c-10.4,0-20.8,0-31.4,0c0-4.9,0-9.8,0-15.1C202.6,216.4,213,216.4,223.8,216.4z
	"/>
</svg>
